<svg width="762" height="402" viewBox="0 0 762 402" fill="none" xmlns="http://www.w3.org/2000/svg">
<rect x="0.413624" y="0.413624" width="761.173" height="401.173" rx="2.89537" fill="white" stroke="#E5E5E5" stroke-width="0.827247"/>
<path d="M85.2124 271.036C84.8286 271.036 84.5242 271.139 84.2991 271.344C84.0807 271.549 83.9153 271.804 83.8028 272.108C83.6903 272.413 83.6175 272.737 83.5844 273.081C83.5579 273.425 83.5447 273.736 83.5447 274.014C83.5447 274.292 83.5579 274.603 83.5844 274.947C83.6175 275.291 83.6903 275.616 83.8028 275.92C83.9153 276.225 84.0807 276.479 84.2991 276.685C84.5242 276.89 84.8286 276.992 85.2124 276.992C85.5963 276.992 85.8974 276.89 86.1158 276.685C86.3408 276.479 86.5095 276.225 86.622 275.92C86.7346 275.616 86.804 275.291 86.8305 274.947C86.8636 274.603 86.8802 274.292 86.8802 274.014C86.8802 273.736 86.8636 273.425 86.8305 273.081C86.804 272.737 86.7346 272.413 86.622 272.108C86.5095 271.804 86.3408 271.549 86.1158 271.344C85.8974 271.139 85.5963 271.036 85.2124 271.036ZM85.2124 270.381C85.7154 270.381 86.1224 270.497 86.4334 270.728C86.7445 270.96 86.986 271.254 87.1581 271.612C87.3302 271.969 87.446 272.363 87.5055 272.793C87.5651 273.217 87.5949 273.624 87.5949 274.014C87.5949 274.405 87.5651 274.815 87.5055 275.245C87.446 275.669 87.3302 276.059 87.1581 276.417C86.986 276.774 86.7445 277.068 86.4334 277.3C86.1224 277.532 85.7154 277.647 85.2124 277.647C84.7095 277.647 84.3024 277.532 83.9914 277.3C83.6804 277.068 83.4388 276.774 83.2667 276.417C83.0947 276.059 82.9789 275.669 82.9193 275.245C82.8597 274.815 82.8299 274.405 82.8299 274.014C82.8299 273.624 82.8597 273.217 82.9193 272.793C82.9789 272.363 83.0947 271.969 83.2667 271.612C83.4388 271.254 83.6804 270.96 83.9914 270.728C84.3024 270.497 84.7095 270.381 85.2124 270.381ZM89.4909 275.473C89.4909 275.698 89.5273 275.904 89.6001 276.089C89.6795 276.274 89.7887 276.436 89.9277 276.575C90.0667 276.708 90.2321 276.81 90.4241 276.883C90.616 276.956 90.8277 276.992 91.0594 276.992C91.291 276.992 91.5028 276.956 91.6947 276.883C91.8866 276.81 92.0521 276.708 92.1911 276.575C92.33 276.436 92.4359 276.274 92.5087 276.089C92.5881 275.904 92.6278 275.698 92.6278 275.473C92.6278 275.248 92.5881 275.043 92.5087 274.858C92.4359 274.673 92.33 274.514 92.1911 274.381C92.0521 274.249 91.8866 274.147 91.6947 274.074C91.5028 273.994 91.291 273.955 91.0594 273.955C90.8277 273.955 90.616 273.994 90.4241 274.074C90.2321 274.147 90.0667 274.249 89.9277 274.381C89.7887 274.514 89.6795 274.673 89.6001 274.858C89.5273 275.043 89.4909 275.248 89.4909 275.473ZM90.2057 273.518L90.2255 273.538C90.338 273.458 90.4869 273.399 90.6722 273.359C90.8641 273.319 91.0395 273.299 91.1984 273.299C91.5028 273.299 91.784 273.356 92.0421 273.468C92.3069 273.574 92.5352 273.723 92.7271 273.915C92.919 274.107 93.0679 274.335 93.1738 274.6C93.2863 274.865 93.3426 275.156 93.3426 275.473C93.3426 275.798 93.2863 276.092 93.1738 276.357C93.0613 276.622 92.9025 276.85 92.6973 277.042C92.4922 277.234 92.2506 277.383 91.9727 277.489C91.6947 277.595 91.3903 277.647 91.0594 277.647C90.7285 277.647 90.4241 277.595 90.1461 277.489C89.8681 277.383 89.6266 277.234 89.4214 277.042C89.2163 276.85 89.0574 276.622 88.9449 276.357C88.8324 276.092 88.7762 275.798 88.7762 275.473C88.7762 275.083 88.8324 274.742 88.9449 274.451C89.0641 274.16 89.2097 273.872 89.3817 273.587L91.2778 270.5H92.1216L90.2057 273.518ZM96.0625 277.052C96.0625 277.191 96.0129 277.317 95.9136 277.429C95.8144 277.535 95.6853 277.588 95.5265 277.588C95.3677 277.588 95.2386 277.535 95.1393 277.429C95.0401 277.317 94.9904 277.191 94.9904 277.052C94.9904 276.913 95.0401 276.79 95.1393 276.685C95.2386 276.572 95.3677 276.516 95.5265 276.516C95.6853 276.516 95.8144 276.572 95.9136 276.685C96.0129 276.79 96.0625 276.913 96.0625 277.052ZM96.0625 273.369C96.0625 273.508 96.0129 273.634 95.9136 273.746C95.8144 273.852 95.6853 273.905 95.5265 273.905C95.3677 273.905 95.2386 273.852 95.1393 273.746C95.0401 273.634 94.9904 273.508 94.9904 273.369C94.9904 273.23 95.0401 273.108 95.1393 273.002C95.2386 272.889 95.3677 272.833 95.5265 272.833C95.6853 272.833 95.8144 272.889 95.9136 273.002C96.0129 273.108 96.0625 273.23 96.0625 273.369ZM100 271.036C99.6163 271.036 99.3118 271.139 99.0868 271.344C98.8684 271.549 98.703 271.804 98.5905 272.108C98.478 272.413 98.4052 272.737 98.3721 273.081C98.3456 273.425 98.3324 273.736 98.3324 274.014C98.3324 274.292 98.3456 274.603 98.3721 274.947C98.4052 275.291 98.478 275.616 98.5905 275.92C98.703 276.225 98.8684 276.479 99.0868 276.685C99.3118 276.89 99.6163 276.992 100 276.992C100.384 276.992 100.685 276.89 100.903 276.685C101.128 276.479 101.297 276.225 101.41 275.92C101.522 275.616 101.592 275.291 101.618 274.947C101.651 274.603 101.668 274.292 101.668 274.014C101.668 273.736 101.651 273.425 101.618 273.081C101.592 272.737 101.522 272.413 101.41 272.108C101.297 271.804 101.128 271.549 100.903 271.344C100.685 271.139 100.384 271.036 100 271.036ZM100 270.381C100.503 270.381 100.91 270.497 101.221 270.728C101.532 270.96 101.774 271.254 101.946 271.612C102.118 271.969 102.234 272.363 102.293 272.793C102.353 273.217 102.383 273.624 102.383 274.014C102.383 274.405 102.353 274.815 102.293 275.245C102.234 275.669 102.118 276.059 101.946 276.417C101.774 276.774 101.532 277.068 101.221 277.3C100.91 277.532 100.503 277.647 100 277.647C99.4971 277.647 99.0901 277.532 98.7791 277.3C98.468 277.068 98.2265 276.774 98.0544 276.417C97.8824 276.059 97.7665 275.669 97.707 275.245C97.6474 274.815 97.6176 274.405 97.6176 274.014C97.6176 273.624 97.6474 273.217 97.707 272.793C97.7665 272.363 97.8824 271.969 98.0544 271.612C98.2265 271.254 98.468 270.96 98.7791 270.728C99.0901 270.497 99.4971 270.381 100 270.381ZM105.847 271.036C105.463 271.036 105.159 271.139 104.934 271.344C104.715 271.549 104.55 271.804 104.437 272.108C104.325 272.413 104.252 272.737 104.219 273.081C104.193 273.425 104.179 273.736 104.179 274.014C104.179 274.292 104.193 274.603 104.219 274.947C104.252 275.291 104.325 275.616 104.437 275.92C104.55 276.225 104.715 276.479 104.934 276.685C105.159 276.89 105.463 276.992 105.847 276.992C106.231 276.992 106.532 276.89 106.75 276.685C106.975 276.479 107.144 276.225 107.257 275.92C107.369 275.616 107.439 275.291 107.465 274.947C107.498 274.603 107.515 274.292 107.515 274.014C107.515 273.736 107.498 273.425 107.465 273.081C107.439 272.737 107.369 272.413 107.257 272.108C107.144 271.804 106.975 271.549 106.75 271.344C106.532 271.139 106.231 271.036 105.847 271.036ZM105.847 270.381C106.35 270.381 106.757 270.497 107.068 270.728C107.379 270.96 107.621 271.254 107.793 271.612C107.965 271.969 108.081 272.363 108.14 272.793C108.2 273.217 108.23 273.624 108.23 274.014C108.23 274.405 108.2 274.815 108.14 275.245C108.081 275.669 107.965 276.059 107.793 276.417C107.621 276.774 107.379 277.068 107.068 277.3C106.757 277.532 106.35 277.647 105.847 277.647C105.344 277.647 104.937 277.532 104.626 277.3C104.315 277.068 104.073 276.774 103.901 276.417C103.729 276.059 103.614 275.669 103.554 275.245C103.494 274.815 103.465 274.405 103.465 274.014C103.465 273.624 103.494 273.217 103.554 272.793C103.614 272.363 103.729 271.969 103.901 271.612C104.073 271.254 104.315 270.96 104.626 270.728C104.937 270.497 105.344 270.381 105.847 270.381Z" fill="#9C9C9C"/>
<rect x="92.993" y="95.4497" width="0.827247" height="165.449" fill="#E5E5E5"/>
<rect x="76.5843" y="260.535" width="650.696" height="0.813217" fill="#E5E5E5"/>
<path d="M188.212 271.036C187.829 271.036 187.524 271.139 187.299 271.344C187.081 271.549 186.915 271.804 186.803 272.108C186.69 272.413 186.617 272.737 186.584 273.081C186.558 273.425 186.545 273.736 186.545 274.014C186.545 274.292 186.558 274.603 186.584 274.947C186.617 275.291 186.69 275.616 186.803 275.92C186.915 276.225 187.081 276.479 187.299 276.685C187.524 276.89 187.829 276.992 188.212 276.992C188.596 276.992 188.897 276.89 189.116 276.685C189.341 276.479 189.51 276.225 189.622 275.92C189.735 275.616 189.804 275.291 189.831 274.947C189.864 274.603 189.88 274.292 189.88 274.014C189.88 273.736 189.864 273.425 189.831 273.081C189.804 272.737 189.735 272.413 189.622 272.108C189.51 271.804 189.341 271.549 189.116 271.344C188.897 271.139 188.596 271.036 188.212 271.036ZM188.212 270.381C188.715 270.381 189.122 270.497 189.433 270.728C189.744 270.96 189.986 271.254 190.158 271.612C190.33 271.969 190.446 272.363 190.506 272.793C190.565 273.217 190.595 273.624 190.595 274.014C190.595 274.405 190.565 274.815 190.506 275.245C190.446 275.669 190.33 276.059 190.158 276.417C189.986 276.774 189.744 277.068 189.433 277.3C189.122 277.532 188.715 277.647 188.212 277.647C187.709 277.647 187.302 277.532 186.991 277.3C186.68 277.068 186.439 276.774 186.267 276.417C186.095 276.059 185.979 275.669 185.919 275.245C185.86 274.815 185.83 274.405 185.83 274.014C185.83 273.624 185.86 273.217 185.919 272.793C185.979 272.363 186.095 271.969 186.267 271.612C186.439 271.254 186.68 270.96 186.991 270.728C187.302 270.497 187.709 270.381 188.212 270.381ZM195.628 272.555C195.628 272.33 195.588 272.125 195.509 271.939C195.436 271.754 195.33 271.595 195.191 271.463C195.052 271.331 194.887 271.228 194.695 271.155C194.503 271.076 194.291 271.036 194.059 271.036C193.828 271.036 193.616 271.076 193.424 271.155C193.232 271.228 193.067 271.331 192.928 271.463C192.789 271.595 192.68 271.754 192.6 271.939C192.527 272.125 192.491 272.33 192.491 272.555C192.491 272.78 192.527 272.985 192.6 273.17C192.68 273.356 192.789 273.518 192.928 273.657C193.067 273.789 193.232 273.892 193.424 273.965C193.616 274.037 193.828 274.074 194.059 274.074C194.291 274.074 194.503 274.037 194.695 273.965C194.887 273.892 195.052 273.789 195.191 273.657C195.33 273.518 195.436 273.356 195.509 273.17C195.588 272.985 195.628 272.78 195.628 272.555ZM194.913 274.511L194.893 274.491C194.781 274.57 194.629 274.63 194.437 274.669C194.251 274.709 194.079 274.729 193.92 274.729C193.616 274.729 193.331 274.676 193.067 274.57C192.809 274.458 192.584 274.305 192.392 274.113C192.2 273.922 192.048 273.693 191.935 273.428C191.829 273.164 191.776 272.873 191.776 272.555C191.776 272.231 191.832 271.936 191.945 271.671C192.057 271.407 192.216 271.178 192.421 270.986C192.627 270.795 192.868 270.646 193.146 270.54C193.424 270.434 193.728 270.381 194.059 270.381C194.39 270.381 194.695 270.434 194.973 270.54C195.251 270.646 195.492 270.795 195.697 270.986C195.902 271.178 196.061 271.407 196.174 271.671C196.286 271.936 196.343 272.231 196.343 272.555C196.343 272.945 196.283 273.286 196.164 273.577C196.051 273.869 195.909 274.156 195.737 274.441L193.841 277.528H192.997L194.913 274.511ZM199.063 277.052C199.063 277.191 199.013 277.317 198.914 277.429C198.814 277.535 198.685 277.588 198.526 277.588C198.368 277.588 198.239 277.535 198.139 277.429C198.04 277.317 197.99 277.191 197.99 277.052C197.99 276.913 198.04 276.79 198.139 276.685C198.239 276.572 198.368 276.516 198.526 276.516C198.685 276.516 198.814 276.572 198.914 276.685C199.013 276.79 199.063 276.913 199.063 277.052ZM199.063 273.369C199.063 273.508 199.013 273.634 198.914 273.746C198.814 273.852 198.685 273.905 198.526 273.905C198.368 273.905 198.239 273.852 198.139 273.746C198.04 273.634 197.99 273.508 197.99 273.369C197.99 273.23 198.04 273.108 198.139 273.002C198.239 272.889 198.368 272.833 198.526 272.833C198.685 272.833 198.814 272.889 198.914 273.002C199.013 273.108 199.063 273.23 199.063 273.369ZM203 271.036C202.616 271.036 202.312 271.139 202.087 271.344C201.868 271.549 201.703 271.804 201.59 272.108C201.478 272.413 201.405 272.737 201.372 273.081C201.346 273.425 201.332 273.736 201.332 274.014C201.332 274.292 201.346 274.603 201.372 274.947C201.405 275.291 201.478 275.616 201.59 275.92C201.703 276.225 201.868 276.479 202.087 276.685C202.312 276.89 202.616 276.992 203 276.992C203.384 276.992 203.685 276.89 203.903 276.685C204.128 276.479 204.297 276.225 204.41 275.92C204.522 275.616 204.592 275.291 204.618 274.947C204.651 274.603 204.668 274.292 204.668 274.014C204.668 273.736 204.651 273.425 204.618 273.081C204.592 272.737 204.522 272.413 204.41 272.108C204.297 271.804 204.128 271.549 203.903 271.344C203.685 271.139 203.384 271.036 203 271.036ZM203 270.381C203.503 270.381 203.91 270.497 204.221 270.728C204.532 270.96 204.774 271.254 204.946 271.612C205.118 271.969 205.234 272.363 205.293 272.793C205.353 273.217 205.383 273.624 205.383 274.014C205.383 274.405 205.353 274.815 205.293 275.245C205.234 275.669 205.118 276.059 204.946 276.417C204.774 276.774 204.532 277.068 204.221 277.3C203.91 277.532 203.503 277.647 203 277.647C202.497 277.647 202.09 277.532 201.779 277.3C201.468 277.068 201.226 276.774 201.054 276.417C200.882 276.059 200.767 275.669 200.707 275.245C200.647 274.815 200.618 274.405 200.618 274.014C200.618 273.624 200.647 273.217 200.707 272.793C200.767 272.363 200.882 271.969 201.054 271.612C201.226 271.254 201.468 270.96 201.779 270.728C202.09 270.497 202.497 270.381 203 270.381ZM208.847 271.036C208.463 271.036 208.159 271.139 207.934 271.344C207.715 271.549 207.55 271.804 207.437 272.108C207.325 272.413 207.252 272.737 207.219 273.081C207.193 273.425 207.179 273.736 207.179 274.014C207.179 274.292 207.193 274.603 207.219 274.947C207.252 275.291 207.325 275.616 207.437 275.92C207.55 276.225 207.715 276.479 207.934 276.685C208.159 276.89 208.463 276.992 208.847 276.992C209.231 276.992 209.532 276.89 209.75 276.685C209.975 276.479 210.144 276.225 210.257 275.92C210.369 275.616 210.439 275.291 210.465 274.947C210.498 274.603 210.515 274.292 210.515 274.014C210.515 273.736 210.498 273.425 210.465 273.081C210.439 272.737 210.369 272.413 210.257 272.108C210.144 271.804 209.975 271.549 209.75 271.344C209.532 271.139 209.231 271.036 208.847 271.036ZM208.847 270.381C209.35 270.381 209.757 270.497 210.068 270.728C210.379 270.96 210.621 271.254 210.793 271.612C210.965 271.969 211.081 272.363 211.14 272.793C211.2 273.217 211.23 273.624 211.23 274.014C211.23 274.405 211.2 274.815 211.14 275.245C211.081 275.669 210.965 276.059 210.793 276.417C210.621 276.774 210.379 277.068 210.068 277.3C209.757 277.532 209.35 277.647 208.847 277.647C208.344 277.647 207.937 277.532 207.626 277.3C207.315 277.068 207.073 276.774 206.901 276.417C206.729 276.059 206.614 275.669 206.554 275.245C206.494 274.815 206.465 274.405 206.465 274.014C206.465 273.624 206.494 273.217 206.554 272.793C206.614 272.363 206.729 271.969 206.901 271.612C207.073 271.254 207.315 270.96 207.626 270.728C207.937 270.497 208.344 270.381 208.847 270.381Z" fill="#9C9C9C"/>
<rect x="195.734" y="95.4497" width="0.827247" height="165.449" fill="#E5E5E5"/>
<path d="M289.683 277.517H288.968V271.382L287.707 272.494L287.26 271.958L289.047 270.489H289.683V277.517ZM297.019 277.517H292.551V276.693L295.351 273.844C295.457 273.738 295.563 273.626 295.669 273.507C295.774 273.387 295.87 273.262 295.956 273.129C296.042 272.997 296.112 272.858 296.165 272.712C296.218 272.567 296.244 272.415 296.244 272.256C296.244 272.064 296.208 271.892 296.135 271.74C296.069 271.587 295.973 271.458 295.847 271.352C295.721 271.247 295.576 271.167 295.41 271.114C295.245 271.055 295.07 271.025 294.884 271.025C294.527 271.025 294.222 271.124 293.971 271.323C293.72 271.521 293.557 271.789 293.485 272.127L292.73 272.047C292.829 271.525 293.068 271.114 293.445 270.816C293.829 270.519 294.292 270.37 294.835 270.37C295.119 270.37 295.387 270.409 295.639 270.489C295.897 270.562 296.122 270.674 296.314 270.826C296.512 270.979 296.668 271.17 296.78 271.402C296.899 271.627 296.959 271.892 296.959 272.196C296.959 272.468 296.916 272.716 296.83 272.941C296.751 273.166 296.645 273.378 296.512 273.576C296.38 273.775 296.228 273.963 296.056 274.142C295.89 274.321 295.718 274.496 295.539 274.668L293.326 276.862H297.019V277.517ZM299.838 277.041C299.838 277.18 299.788 277.305 299.689 277.418C299.59 277.524 299.461 277.577 299.302 277.577C299.143 277.577 299.014 277.524 298.915 277.418C298.815 277.305 298.766 277.18 298.766 277.041C298.766 276.902 298.815 276.779 298.915 276.673C299.014 276.561 299.143 276.505 299.302 276.505C299.461 276.505 299.59 276.561 299.689 276.673C299.788 276.779 299.838 276.902 299.838 277.041ZM299.838 273.358C299.838 273.497 299.788 273.622 299.689 273.735C299.59 273.841 299.461 273.894 299.302 273.894C299.143 273.894 299.014 273.841 298.915 273.735C298.815 273.622 298.766 273.497 298.766 273.358C298.766 273.219 298.815 273.096 298.915 272.99C299.014 272.878 299.143 272.822 299.302 272.822C299.461 272.822 299.59 272.878 299.689 272.99C299.788 273.096 299.838 273.219 299.838 273.358ZM303.775 271.025C303.392 271.025 303.087 271.127 302.862 271.333C302.644 271.538 302.478 271.793 302.366 272.097C302.253 272.401 302.18 272.726 302.147 273.07C302.121 273.414 302.108 273.725 302.108 274.003C302.108 274.281 302.121 274.592 302.147 274.936C302.18 275.28 302.253 275.604 302.366 275.909C302.478 276.213 302.644 276.468 302.862 276.673C303.087 276.878 303.392 276.981 303.775 276.981C304.159 276.981 304.46 276.878 304.679 276.673C304.904 276.468 305.072 276.213 305.185 275.909C305.298 275.604 305.367 275.28 305.393 274.936C305.427 274.592 305.443 274.281 305.443 274.003C305.443 273.725 305.427 273.414 305.393 273.07C305.367 272.726 305.298 272.401 305.185 272.097C305.072 271.793 304.904 271.538 304.679 271.333C304.46 271.127 304.159 271.025 303.775 271.025ZM303.775 270.37C304.278 270.37 304.685 270.485 304.996 270.717C305.307 270.949 305.549 271.243 305.721 271.601C305.893 271.958 306.009 272.352 306.069 272.782C306.128 273.205 306.158 273.612 306.158 274.003C306.158 274.393 306.128 274.804 306.069 275.234C306.009 275.657 305.893 276.048 305.721 276.405C305.549 276.763 305.307 277.057 304.996 277.289C304.685 277.52 304.278 277.636 303.775 277.636C303.272 277.636 302.865 277.52 302.554 277.289C302.243 277.057 302.002 276.763 301.83 276.405C301.658 276.048 301.542 275.657 301.482 275.234C301.423 274.804 301.393 274.393 301.393 274.003C301.393 273.612 301.423 273.205 301.482 272.782C301.542 272.352 301.658 271.958 301.83 271.601C302.002 271.243 302.243 270.949 302.554 270.717C302.865 270.485 303.272 270.37 303.775 270.37ZM309.622 271.025C309.238 271.025 308.934 271.127 308.709 271.333C308.491 271.538 308.325 271.793 308.213 272.097C308.1 272.401 308.027 272.726 307.994 273.07C307.968 273.414 307.955 273.725 307.955 274.003C307.955 274.281 307.968 274.592 307.994 274.936C308.027 275.28 308.1 275.604 308.213 275.909C308.325 276.213 308.491 276.468 308.709 276.673C308.934 276.878 309.238 276.981 309.622 276.981C310.006 276.981 310.307 276.878 310.526 276.673C310.751 276.468 310.919 276.213 311.032 275.909C311.144 275.604 311.214 275.28 311.24 274.936C311.274 274.592 311.29 274.281 311.29 274.003C311.29 273.725 311.274 273.414 311.24 273.07C311.214 272.726 311.144 272.401 311.032 272.097C310.919 271.793 310.751 271.538 310.526 271.333C310.307 271.127 310.006 271.025 309.622 271.025ZM309.622 270.37C310.125 270.37 310.532 270.485 310.843 270.717C311.154 270.949 311.396 271.243 311.568 271.601C311.74 271.958 311.856 272.352 311.915 272.782C311.975 273.205 312.005 273.612 312.005 274.003C312.005 274.393 311.975 274.804 311.915 275.234C311.856 275.657 311.74 276.048 311.568 276.405C311.396 276.763 311.154 277.057 310.843 277.289C310.532 277.52 310.125 277.636 309.622 277.636C309.119 277.636 308.712 277.52 308.401 277.289C308.09 277.057 307.849 276.763 307.677 276.405C307.505 276.048 307.389 275.657 307.329 275.234C307.27 274.804 307.24 274.393 307.24 274.003C307.24 273.612 307.27 273.205 307.329 272.782C307.389 272.352 307.505 271.958 307.677 271.601C307.849 271.243 308.09 270.949 308.401 270.717C308.712 270.485 309.119 270.37 309.622 270.37Z" fill="#9C9C9C"/>
<rect x="298.476" y="95.4497" width="0.827247" height="165.449" fill="#E5E5E5"/>
<path d="M391.596 270.568V277.517H390.881V271.204H389.243V270.568H391.596ZM395.414 273.417C396.42 273.417 397.152 273.599 397.608 273.963C398.071 274.321 398.303 274.824 398.303 275.472C398.303 275.876 398.207 276.237 398.015 276.554C397.83 276.872 397.549 277.123 397.171 277.309C396.794 277.487 396.331 277.577 395.782 277.577C395.285 277.577 394.812 277.497 394.362 277.338C393.919 277.173 393.561 276.955 393.29 276.683L393.637 276.117C393.869 276.356 394.173 276.551 394.551 276.703C394.928 276.849 395.335 276.921 395.772 276.921C396.347 276.921 396.791 276.792 397.102 276.534C397.42 276.276 397.578 275.932 397.578 275.502C397.578 275.025 397.4 274.665 397.042 274.42C396.692 274.175 396.096 274.053 395.255 274.053H393.776L394.134 270.568H397.936V271.204H394.759L394.521 273.417H395.414ZM400.077 273.338C399.932 273.338 399.806 273.285 399.7 273.179C399.601 273.073 399.551 272.944 399.551 272.792C399.551 272.64 399.601 272.514 399.7 272.415C399.806 272.309 399.932 272.256 400.077 272.256C400.223 272.256 400.349 272.309 400.455 272.415C400.561 272.514 400.613 272.64 400.613 272.792C400.613 272.944 400.561 273.073 400.455 273.179C400.349 273.285 400.223 273.338 400.077 273.338ZM400.077 277.567C399.932 277.567 399.806 277.514 399.7 277.408C399.601 277.302 399.551 277.173 399.551 277.021C399.551 276.869 399.601 276.743 399.7 276.644C399.806 276.538 399.932 276.485 400.077 276.485C400.223 276.485 400.349 276.538 400.455 276.644C400.561 276.743 400.613 276.869 400.613 277.021C400.613 277.173 400.561 277.302 400.455 277.408C400.349 277.514 400.223 277.567 400.077 277.567ZM404.746 277.577C404.209 277.577 403.73 277.434 403.306 277.15C402.889 276.865 402.562 276.458 402.323 275.929C402.092 275.393 401.976 274.764 401.976 274.043C401.976 273.321 402.092 272.696 402.323 272.166C402.562 271.63 402.889 271.22 403.306 270.936C403.73 270.651 404.209 270.509 404.746 270.509C405.282 270.509 405.758 270.651 406.175 270.936C406.599 271.22 406.929 271.63 407.168 272.166C407.406 272.696 407.525 273.321 407.525 274.043C407.525 274.764 407.406 275.393 407.168 275.929C406.929 276.458 406.599 276.865 406.175 277.15C405.758 277.434 405.282 277.577 404.746 277.577ZM404.746 276.921C405.149 276.921 405.503 276.809 405.808 276.584C406.119 276.359 406.36 276.031 406.532 275.601C406.704 275.171 406.79 274.652 406.79 274.043C406.79 273.434 406.704 272.914 406.532 272.484C406.36 272.054 406.119 271.726 405.808 271.501C405.503 271.276 405.149 271.164 404.746 271.164C404.342 271.164 403.984 271.276 403.673 271.501C403.369 271.726 403.131 272.054 402.959 272.484C402.787 272.914 402.701 273.434 402.701 274.043C402.701 274.652 402.787 275.171 402.959 275.601C403.131 276.031 403.369 276.359 403.673 276.584C403.984 276.809 404.342 276.921 404.746 276.921ZM411.649 277.577C411.113 277.577 410.633 277.434 410.21 277.15C409.793 276.865 409.465 276.458 409.227 275.929C408.995 275.393 408.88 274.764 408.88 274.043C408.88 273.321 408.995 272.696 409.227 272.166C409.465 271.63 409.793 271.22 410.21 270.936C410.633 270.651 411.113 270.509 411.649 270.509C412.185 270.509 412.662 270.651 413.079 270.936C413.502 271.22 413.833 271.63 414.071 272.166C414.31 272.696 414.429 273.321 414.429 274.043C414.429 274.764 414.31 275.393 414.071 275.929C413.833 276.458 413.502 276.865 413.079 277.15C412.662 277.434 412.185 277.577 411.649 277.577ZM411.649 276.921C412.053 276.921 412.407 276.809 412.711 276.584C413.022 276.359 413.264 276.031 413.436 275.601C413.608 275.171 413.694 274.652 413.694 274.043C413.694 273.434 413.608 272.914 413.436 272.484C413.264 272.054 413.022 271.726 412.711 271.501C412.407 271.276 412.053 271.164 411.649 271.164C411.245 271.164 410.888 271.276 410.577 271.501C410.273 271.726 410.034 272.054 409.862 272.484C409.69 272.914 409.604 273.434 409.604 274.043C409.604 274.652 409.69 275.171 409.862 275.601C410.034 276.031 410.273 276.359 410.577 276.584C410.888 276.809 411.245 276.921 411.649 276.921Z" fill="#9C9C9C"/>
<rect x="401.218" y="95.4497" width="0.827247" height="165.449" fill="#E5E5E5"/>
<path d="M495.725 270.579V277.528H495.01V271.215H493.372V270.579H495.725ZM501.698 273.885C502.135 274.031 502.469 274.249 502.7 274.54C502.939 274.831 503.058 275.182 503.058 275.593C503.058 275.996 502.949 276.35 502.73 276.655C502.512 276.953 502.197 277.184 501.787 277.35C501.383 277.508 500.907 277.588 500.358 277.588C499.524 277.588 498.869 277.409 498.392 277.052C497.916 276.694 497.677 276.208 497.677 275.593C497.677 275.176 497.79 274.825 498.015 274.54C498.247 274.249 498.581 274.031 499.017 273.885C498.66 273.746 498.389 273.548 498.203 273.29C498.018 273.025 497.926 272.714 497.926 272.356C497.926 271.794 498.144 271.347 498.581 271.016C499.024 270.685 499.616 270.52 500.358 270.52C500.847 270.52 501.274 270.596 501.638 270.748C502.009 270.894 502.297 271.106 502.502 271.384C502.707 271.661 502.81 271.986 502.81 272.356C502.81 272.714 502.714 273.025 502.522 273.29C502.33 273.548 502.055 273.746 501.698 273.885ZM498.64 272.376C498.64 272.76 498.792 273.064 499.097 273.29C499.401 273.515 499.822 273.627 500.358 273.627C500.894 273.627 501.314 273.515 501.618 273.29C501.929 273.064 502.085 272.763 502.085 272.386C502.085 271.996 501.926 271.688 501.608 271.463C501.297 271.238 500.88 271.125 500.358 271.125C499.828 271.125 499.408 271.238 499.097 271.463C498.792 271.688 498.64 271.992 498.64 272.376ZM500.358 276.982C500.973 276.982 501.453 276.857 501.797 276.605C502.148 276.354 502.323 276.013 502.323 275.583C502.323 275.152 502.148 274.815 501.797 274.57C501.453 274.319 500.973 274.193 500.358 274.193C499.749 274.193 499.269 274.319 498.918 274.57C498.574 274.815 498.402 275.152 498.402 275.583C498.402 276.019 498.574 276.364 498.918 276.615C499.262 276.86 499.742 276.982 500.358 276.982ZM504.914 273.349C504.769 273.349 504.643 273.296 504.537 273.19C504.438 273.084 504.388 272.955 504.388 272.803C504.388 272.651 504.438 272.525 504.537 272.426C504.643 272.32 504.769 272.267 504.914 272.267C505.06 272.267 505.186 272.32 505.292 272.426C505.398 272.525 505.45 272.651 505.45 272.803C505.45 272.955 505.398 273.084 505.292 273.19C505.186 273.296 505.06 273.349 504.914 273.349ZM504.914 277.578C504.769 277.578 504.643 277.525 504.537 277.419C504.438 277.313 504.388 277.184 504.388 277.032C504.388 276.88 504.438 276.754 504.537 276.655C504.643 276.549 504.769 276.496 504.914 276.496C505.06 276.496 505.186 276.549 505.292 276.655C505.398 276.754 505.45 276.88 505.45 277.032C505.45 277.184 505.398 277.313 505.292 277.419C505.186 277.525 505.06 277.578 504.914 277.578ZM509.583 277.588C509.046 277.588 508.567 277.446 508.143 277.161C507.726 276.876 507.399 276.469 507.16 275.94C506.929 275.404 506.813 274.775 506.813 274.054C506.813 273.333 506.929 272.707 507.16 272.178C507.399 271.642 507.726 271.231 508.143 270.947C508.567 270.662 509.046 270.52 509.583 270.52C510.119 270.52 510.595 270.662 511.012 270.947C511.436 271.231 511.766 271.642 512.005 272.178C512.243 272.707 512.362 273.333 512.362 274.054C512.362 274.775 512.243 275.404 512.005 275.94C511.766 276.469 511.436 276.876 511.012 277.161C510.595 277.446 510.119 277.588 509.583 277.588ZM509.583 276.933C509.986 276.933 510.34 276.82 510.645 276.595C510.956 276.37 511.197 276.043 511.369 275.612C511.541 275.182 511.627 274.663 511.627 274.054C511.627 273.445 511.541 272.926 511.369 272.495C511.197 272.065 510.956 271.738 510.645 271.513C510.34 271.288 509.986 271.175 509.583 271.175C509.179 271.175 508.821 271.288 508.51 271.513C508.206 271.738 507.968 272.065 507.796 272.495C507.624 272.926 507.538 273.445 507.538 274.054C507.538 274.663 507.624 275.182 507.796 275.612C507.968 276.043 508.206 276.37 508.51 276.595C508.821 276.82 509.179 276.933 509.583 276.933ZM516.486 277.588C515.95 277.588 515.47 277.446 515.047 277.161C514.63 276.876 514.302 276.469 514.064 275.94C513.832 275.404 513.717 274.775 513.717 274.054C513.717 273.333 513.832 272.707 514.064 272.178C514.302 271.642 514.63 271.231 515.047 270.947C515.47 270.662 515.95 270.52 516.486 270.52C517.022 270.52 517.499 270.662 517.916 270.947C518.339 271.231 518.67 271.642 518.908 272.178C519.147 272.707 519.266 273.333 519.266 274.054C519.266 274.775 519.147 275.404 518.908 275.94C518.67 276.469 518.339 276.876 517.916 277.161C517.499 277.446 517.022 277.588 516.486 277.588ZM516.486 276.933C516.89 276.933 517.244 276.82 517.548 276.595C517.859 276.37 518.101 276.043 518.273 275.612C518.445 275.182 518.531 274.663 518.531 274.054C518.531 273.445 518.445 272.926 518.273 272.495C518.101 272.065 517.859 271.738 517.548 271.513C517.244 271.288 516.89 271.175 516.486 271.175C516.082 271.175 515.725 271.288 515.414 271.513C515.11 271.738 514.871 272.065 514.699 272.495C514.527 272.926 514.441 273.445 514.441 274.054C514.441 274.663 514.527 275.182 514.699 275.612C514.871 276.043 515.11 276.37 515.414 276.595C515.725 276.82 516.082 276.933 516.486 276.933Z" fill="#9C9C9C"/>
<rect x="503.959" y="95.4497" width="0.827247" height="165.449" fill="#E5E5E5"/>
<path d="M601.889 276.893V277.528H597.014V277.022L599.903 274.193C600.267 273.835 600.512 273.528 600.638 273.27C600.77 273.005 600.836 272.74 600.836 272.475C600.836 272.065 600.694 271.748 600.409 271.523C600.131 271.291 599.731 271.175 599.208 271.175C598.394 271.175 597.762 271.433 597.312 271.949L596.806 271.513C597.077 271.195 597.421 270.95 597.838 270.778C598.262 270.606 598.738 270.52 599.268 270.52C599.976 270.52 600.535 270.689 600.945 271.026C601.362 271.357 601.571 271.814 601.571 272.396C601.571 272.753 601.491 273.098 601.333 273.428C601.174 273.759 600.873 274.14 600.429 274.57L598.067 276.893H601.889ZM605.042 270.579V277.528H604.327V271.215H602.69V270.579H605.042ZM607.57 273.349C607.425 273.349 607.299 273.296 607.193 273.19C607.094 273.084 607.044 272.955 607.044 272.803C607.044 272.651 607.094 272.525 607.193 272.426C607.299 272.32 607.425 272.267 607.57 272.267C607.716 272.267 607.842 272.32 607.947 272.426C608.053 272.525 608.106 272.651 608.106 272.803C608.106 272.955 608.053 273.084 607.947 273.19C607.842 273.296 607.716 273.349 607.57 273.349ZM607.57 277.578C607.425 277.578 607.299 277.525 607.193 277.419C607.094 277.313 607.044 277.184 607.044 277.032C607.044 276.88 607.094 276.754 607.193 276.655C607.299 276.549 607.425 276.496 607.57 276.496C607.716 276.496 607.842 276.549 607.947 276.655C608.053 276.754 608.106 276.88 608.106 277.032C608.106 277.184 608.053 277.313 607.947 277.419C607.842 277.525 607.716 277.578 607.57 277.578ZM612.238 277.588C611.702 277.588 611.223 277.446 610.799 277.161C610.382 276.876 610.054 276.469 609.816 275.94C609.585 275.404 609.469 274.775 609.469 274.054C609.469 273.333 609.585 272.707 609.816 272.178C610.054 271.642 610.382 271.231 610.799 270.947C611.223 270.662 611.702 270.52 612.238 270.52C612.774 270.52 613.251 270.662 613.668 270.947C614.091 271.231 614.422 271.642 614.661 272.178C614.899 272.707 615.018 273.333 615.018 274.054C615.018 274.775 614.899 275.404 614.661 275.94C614.422 276.469 614.091 276.876 613.668 277.161C613.251 277.446 612.774 277.588 612.238 277.588ZM612.238 276.933C612.642 276.933 612.996 276.82 613.301 276.595C613.612 276.37 613.853 276.043 614.025 275.612C614.197 275.182 614.283 274.663 614.283 274.054C614.283 273.445 614.197 272.926 614.025 272.495C613.853 272.065 613.612 271.738 613.301 271.513C612.996 271.288 612.642 271.175 612.238 271.175C611.835 271.175 611.477 271.288 611.166 271.513C610.862 271.738 610.624 272.065 610.452 272.495C610.279 272.926 610.193 273.445 610.193 274.054C610.193 274.663 610.279 275.182 610.452 275.612C610.624 276.043 610.862 276.37 611.166 276.595C611.477 276.82 611.835 276.933 612.238 276.933ZM619.142 277.588C618.606 277.588 618.126 277.446 617.703 277.161C617.286 276.876 616.958 276.469 616.72 275.94C616.488 275.404 616.372 274.775 616.372 274.054C616.372 273.333 616.488 272.707 616.72 272.178C616.958 271.642 617.286 271.231 617.703 270.947C618.126 270.662 618.606 270.52 619.142 270.52C619.678 270.52 620.155 270.662 620.572 270.947C620.995 271.231 621.326 271.642 621.564 272.178C621.802 272.707 621.922 273.333 621.922 274.054C621.922 274.775 621.802 275.404 621.564 275.94C621.326 276.469 620.995 276.876 620.572 277.161C620.155 277.446 619.678 277.588 619.142 277.588ZM619.142 276.933C619.546 276.933 619.9 276.82 620.204 276.595C620.515 276.37 620.757 276.043 620.929 275.612C621.101 275.182 621.187 274.663 621.187 274.054C621.187 273.445 621.101 272.926 620.929 272.495C620.757 272.065 620.515 271.738 620.204 271.513C619.9 271.288 619.546 271.175 619.142 271.175C618.738 271.175 618.381 271.288 618.07 271.513C617.765 271.738 617.527 272.065 617.355 272.495C617.183 272.926 617.097 273.445 617.097 274.054C617.097 274.663 617.183 275.182 617.355 275.612C617.527 276.043 617.765 276.37 618.07 276.595C618.381 276.82 618.738 276.933 619.142 276.933Z" fill="#9C9C9C"/>
<rect x="606.701" y="95.4497" width="0.827247" height="165.449" fill="#E5E5E5"/>
<path d="M703.88 276.893V277.528H699.006V277.022L701.895 274.193C702.259 273.835 702.504 273.528 702.63 273.27C702.762 273.005 702.828 272.74 702.828 272.475C702.828 272.065 702.686 271.748 702.401 271.523C702.123 271.291 701.723 271.175 701.2 271.175C700.386 271.175 699.754 271.433 699.304 271.949L698.798 271.513C699.069 271.195 699.413 270.95 699.83 270.778C700.254 270.606 700.73 270.52 701.26 270.52C701.968 270.52 702.527 270.689 702.937 271.026C703.354 271.357 703.563 271.814 703.563 272.396C703.563 272.753 703.483 273.098 703.325 273.428C703.166 273.759 702.865 274.14 702.421 274.57L700.059 276.893H703.88ZM707.471 273.558C708.199 273.597 708.752 273.796 709.129 274.153C709.513 274.504 709.705 274.964 709.705 275.533C709.705 275.93 709.609 276.284 709.417 276.595C709.225 276.9 708.94 277.141 708.563 277.32C708.186 277.499 707.726 277.588 707.183 277.588C706.68 277.588 706.204 277.508 705.754 277.35C705.31 277.184 704.953 276.966 704.681 276.694L705.029 276.129C705.261 276.367 705.568 276.562 705.952 276.714C706.336 276.86 706.746 276.933 707.183 276.933C707.752 276.933 708.192 276.81 708.503 276.565C708.814 276.314 708.97 275.97 708.97 275.533C708.97 275.103 708.814 274.765 708.503 274.52C708.192 274.276 707.722 274.153 707.094 274.153H706.597V273.627L708.523 271.215H704.969V270.579H709.436V271.086L707.471 273.558ZM711.579 273.349C711.433 273.349 711.307 273.296 711.201 273.19C711.102 273.084 711.052 272.955 711.052 272.803C711.052 272.651 711.102 272.525 711.201 272.426C711.307 272.32 711.433 272.267 711.579 272.267C711.724 272.267 711.85 272.32 711.956 272.426C712.062 272.525 712.115 272.651 712.115 272.803C712.115 272.955 712.062 273.084 711.956 273.19C711.85 273.296 711.724 273.349 711.579 273.349ZM711.579 277.578C711.433 277.578 711.307 277.525 711.201 277.419C711.102 277.313 711.052 277.184 711.052 277.032C711.052 276.88 711.102 276.754 711.201 276.655C711.307 276.549 711.433 276.496 711.579 276.496C711.724 276.496 711.85 276.549 711.956 276.655C712.062 276.754 712.115 276.88 712.115 277.032C712.115 277.184 712.062 277.313 711.956 277.419C711.85 277.525 711.724 277.578 711.579 277.578ZM716.247 277.588C715.711 277.588 715.231 277.446 714.807 277.161C714.39 276.876 714.063 276.469 713.825 275.94C713.593 275.404 713.477 274.775 713.477 274.054C713.477 273.333 713.593 272.707 713.825 272.178C714.063 271.642 714.39 271.231 714.807 270.947C715.231 270.662 715.711 270.52 716.247 270.52C716.783 270.52 717.259 270.662 717.676 270.947C718.1 271.231 718.431 271.642 718.669 272.178C718.907 272.707 719.026 273.333 719.026 274.054C719.026 274.775 718.907 275.404 718.669 275.94C718.431 276.469 718.1 276.876 717.676 277.161C717.259 277.446 716.783 277.588 716.247 277.588ZM716.247 276.933C716.65 276.933 717.004 276.82 717.309 276.595C717.62 276.37 717.861 276.043 718.034 275.612C718.206 275.182 718.292 274.663 718.292 274.054C718.292 273.445 718.206 272.926 718.034 272.495C717.861 272.065 717.62 271.738 717.309 271.513C717.004 271.288 716.65 271.175 716.247 271.175C715.843 271.175 715.486 271.288 715.175 271.513C714.87 271.738 714.632 272.065 714.46 272.495C714.288 272.926 714.202 273.445 714.202 274.054C714.202 274.663 714.288 275.182 714.46 275.612C714.632 276.043 714.87 276.37 715.175 276.595C715.486 276.82 715.843 276.933 716.247 276.933ZM723.15 277.588C722.614 277.588 722.134 277.446 721.711 277.161C721.294 276.876 720.966 276.469 720.728 275.94C720.497 275.404 720.381 274.775 720.381 274.054C720.381 273.333 720.497 272.707 720.728 272.178C720.966 271.642 721.294 271.231 721.711 270.947C722.134 270.662 722.614 270.52 723.15 270.52C723.686 270.52 724.163 270.662 724.58 270.947C725.003 271.231 725.334 271.642 725.573 272.178C725.811 272.707 725.93 273.333 725.93 274.054C725.93 274.775 725.811 275.404 725.573 275.94C725.334 276.469 725.003 276.876 724.58 277.161C724.163 277.446 723.686 277.588 723.15 277.588ZM723.15 276.933C723.554 276.933 723.908 276.82 724.213 276.595C724.524 276.37 724.765 276.043 724.937 275.612C725.109 275.182 725.195 274.663 725.195 274.054C725.195 273.445 725.109 272.926 724.937 272.495C724.765 272.065 724.524 271.738 724.213 271.513C723.908 271.288 723.554 271.175 723.15 271.175C722.747 271.175 722.389 271.288 722.078 271.513C721.774 271.738 721.536 272.065 721.363 272.495C721.191 272.926 721.105 273.445 721.105 274.054C721.105 274.663 721.191 275.182 721.363 275.612C721.536 276.043 721.774 276.37 722.078 276.595C722.389 276.82 722.747 276.933 723.15 276.933Z" fill="#9C9C9C"/>
<rect x="709.442" y="95.4497" width="0.827247" height="165.449" fill="#E5E5E5"/>
<path d="M57.4908 253.574C57.107 253.574 56.8025 253.677 56.5775 253.882C56.3591 254.087 56.1937 254.342 56.0812 254.646C55.9687 254.95 55.8959 255.275 55.8628 255.619C55.8363 255.963 55.8231 256.274 55.8231 256.552C55.8231 256.83 55.8363 257.141 55.8628 257.485C55.8959 257.829 55.9687 258.154 56.0812 258.458C56.1937 258.762 56.3591 259.017 56.5775 259.222C56.8025 259.428 57.107 259.53 57.4908 259.53C57.8747 259.53 58.1758 259.428 58.3942 259.222C58.6192 259.017 58.7879 258.762 58.9004 258.458C59.013 258.154 59.0824 257.829 59.1089 257.485C59.142 257.141 59.1585 256.83 59.1585 256.552C59.1585 256.274 59.142 255.963 59.1089 255.619C59.0824 255.275 59.013 254.95 58.9004 254.646C58.7879 254.342 58.6192 254.087 58.3942 253.882C58.1758 253.677 57.8747 253.574 57.4908 253.574ZM57.4908 252.919C57.9938 252.919 58.4008 253.035 58.7118 253.266C59.0229 253.498 59.2644 253.792 59.4365 254.15C59.6086 254.507 59.7244 254.901 59.7839 255.331C59.8435 255.755 59.8733 256.162 59.8733 256.552C59.8733 256.942 59.8435 257.353 59.7839 257.783C59.7244 258.207 59.6086 258.597 59.4365 258.954C59.2644 259.312 59.0229 259.606 58.7118 259.838C58.4008 260.069 57.9938 260.185 57.4908 260.185C56.9879 260.185 56.5808 260.069 56.2698 259.838C55.9588 259.606 55.7172 259.312 55.5451 258.954C55.3731 258.597 55.2573 258.207 55.1977 257.783C55.1381 257.353 55.1083 256.942 55.1083 256.552C55.1083 256.162 55.1381 255.755 55.1977 255.331C55.2573 254.901 55.3731 254.507 55.5451 254.15C55.7172 253.792 55.9588 253.498 56.2698 253.266C56.5808 253.035 56.9879 252.919 57.4908 252.919Z" fill="#9C9C9C"/>
<path d="M49.245 219.786H48.5302V213.651L47.2695 214.763L46.8228 214.227L48.6096 212.757H49.245V219.786ZM53.5532 219.309C53.5532 219.448 53.5036 219.574 53.4043 219.686C53.3051 219.792 53.176 219.845 53.0172 219.845C52.8584 219.845 52.7293 219.792 52.63 219.686C52.5308 219.574 52.4811 219.448 52.4811 219.309C52.4811 219.17 52.5308 219.048 52.63 218.942C52.7293 218.829 52.8584 218.773 53.0172 218.773C53.176 218.773 53.3051 218.829 53.4043 218.942C53.5036 219.048 53.5532 219.17 53.5532 219.309ZM58.146 213.472H58.1261L55.704 217.463H58.146V213.472ZM58.8607 217.463H59.8733V218.118H58.8607V219.786H58.146V218.118H55.1083V217.304L57.9475 212.757H58.8607V217.463Z" fill="#9C9C9C"/>
<path d="M50.734 179.505H46.2669V178.681L49.0663 175.832C49.1722 175.726 49.2781 175.614 49.384 175.494C49.4898 175.375 49.5858 175.25 49.6718 175.117C49.7579 174.985 49.8274 174.846 49.8803 174.7C49.9332 174.555 49.9597 174.402 49.9597 174.244C49.9597 174.052 49.9233 173.88 49.8505 173.727C49.7843 173.575 49.6884 173.446 49.5626 173.34C49.4369 173.234 49.2913 173.155 49.1258 173.102C48.9604 173.042 48.785 173.013 48.5997 173.013C48.2423 173.013 47.9379 173.112 47.6864 173.31C47.435 173.509 47.2728 173.777 47.2 174.115L46.4456 174.035C46.5448 173.512 46.7831 173.102 47.1603 172.804C47.5442 172.506 48.0074 172.357 48.5501 172.357C48.8347 172.357 49.1027 172.397 49.3542 172.477C49.6123 172.549 49.8373 172.662 50.0292 172.814C50.2277 172.966 50.3833 173.158 50.4958 173.39C50.6149 173.615 50.6745 173.88 50.6745 174.184C50.6745 174.455 50.6314 174.704 50.5454 174.929C50.466 175.154 50.3601 175.365 50.2277 175.564C50.0954 175.762 49.9432 175.951 49.7711 176.13C49.6057 176.308 49.4336 176.484 49.2549 176.656L47.0412 178.85H50.734V179.505ZM53.5532 179.028C53.5532 179.167 53.5036 179.293 53.4043 179.406C53.3051 179.512 53.176 179.564 53.0172 179.564C52.8584 179.564 52.7293 179.512 52.63 179.406C52.5308 179.293 52.4811 179.167 52.4811 179.028C52.4811 178.889 52.5308 178.767 52.63 178.661C52.7293 178.549 52.8584 178.492 53.0172 178.492C53.176 178.492 53.3051 178.549 53.4043 178.661C53.5036 178.767 53.5532 178.889 53.5532 179.028ZM58.146 173.191H58.1261L55.704 177.182H58.146V173.191ZM58.8607 177.182H59.8733V177.837H58.8607V179.505H58.146V177.837H55.1083V177.023L57.9475 172.477H58.8607V177.182Z" fill="#9C9C9C"/>
<path d="M46.9882 135.214H47.3555C47.5607 135.214 47.7559 135.191 47.9412 135.144C48.1331 135.098 48.2986 135.025 48.4376 134.926C48.5765 134.82 48.6857 134.684 48.7651 134.519C48.8512 134.354 48.8942 134.155 48.8942 133.923C48.8942 133.546 48.7784 133.255 48.5468 133.05C48.3217 132.838 48.0041 132.732 47.5938 132.732C47.296 132.732 47.0345 132.798 46.8095 132.931C46.5845 133.063 46.3992 133.255 46.2536 133.506L45.6282 133.189C45.84 132.812 46.108 132.534 46.4323 132.355C46.7632 132.17 47.1437 132.077 47.5739 132.077C47.8519 132.077 48.1133 132.117 48.3581 132.196C48.603 132.275 48.8181 132.395 49.0034 132.553C49.1887 132.706 49.3343 132.898 49.4402 133.129C49.5527 133.354 49.6089 133.612 49.6089 133.904C49.6089 134.095 49.5758 134.277 49.5097 134.449C49.4501 134.622 49.3641 134.777 49.2516 134.916C49.1457 135.055 49.0199 135.177 48.8743 135.283C48.7287 135.383 48.5765 135.459 48.4177 135.512L48.4475 135.532C48.646 135.571 48.828 135.647 48.9935 135.76C49.1589 135.866 49.3012 135.998 49.4203 136.157C49.5394 136.316 49.6321 136.494 49.6983 136.693C49.7645 136.892 49.7976 137.1 49.7976 137.318C49.7976 137.643 49.738 137.931 49.6189 138.182C49.4997 138.434 49.3376 138.645 49.1324 138.817C48.9273 138.989 48.689 139.122 48.4177 139.214C48.1464 139.3 47.8585 139.343 47.5541 139.343C47.0379 139.343 46.5878 139.231 46.204 139.006C45.8201 138.781 45.5323 138.42 45.3403 137.924L46.0948 137.696C46.2139 138.033 46.3893 138.285 46.6209 138.45C46.8592 138.609 47.1901 138.688 47.6136 138.688C47.8122 138.688 48.0008 138.655 48.1795 138.589C48.3581 138.523 48.5137 138.43 48.646 138.311C48.785 138.185 48.8909 138.036 48.9637 137.864C49.0431 137.692 49.0828 137.504 49.0828 137.299C49.0828 137.034 49.0332 136.812 48.9339 136.633C48.8346 136.448 48.7023 136.299 48.5368 136.187C48.3714 136.074 48.1795 135.995 47.9611 135.948C47.7493 135.896 47.5276 135.869 47.296 135.869H46.9882V135.214ZM52.726 138.748C52.726 138.887 52.6763 139.013 52.5771 139.125C52.4778 139.231 52.3488 139.284 52.1899 139.284C52.0311 139.284 51.902 139.231 51.8028 139.125C51.7035 139.013 51.6539 138.887 51.6539 138.748C51.6539 138.609 51.7035 138.486 51.8028 138.381C51.902 138.268 52.0311 138.212 52.1899 138.212C52.3488 138.212 52.4778 138.268 52.5771 138.381C52.6763 138.486 52.726 138.609 52.726 138.748ZM57.3187 132.911H57.2989L54.8767 136.901H57.3187V132.911ZM58.0335 136.901H59.046V137.557H58.0335V139.224H57.3187V137.557H54.2811V136.743L57.1202 132.196H58.0335V136.901Z" fill="#9C9C9C"/>
<path d="M48.378 92.6303H48.3581L45.936 96.6209H48.378V92.6303ZM49.0927 96.6209H50.1053V97.2761H49.0927V98.9438H48.378V97.2761H45.3403V96.4621L48.1795 91.9156H49.0927V96.6209ZM52.726 98.4674C52.726 98.6063 52.6763 98.7321 52.5771 98.8446C52.4778 98.9505 52.3488 99.0034 52.1899 99.0034C52.0311 99.0034 51.902 98.9505 51.8028 98.8446C51.7035 98.7321 51.6539 98.6063 51.6539 98.4674C51.6539 98.3284 51.7035 98.2059 51.8028 98.1001C51.902 97.9875 52.0311 97.9313 52.1899 97.9313C52.3488 97.9313 52.4778 97.9875 52.5771 98.1001C52.6763 98.2059 52.726 98.3284 52.726 98.4674ZM57.3187 92.6303H57.2989L54.8767 96.6209H57.3187V92.6303ZM58.0335 96.6209H59.046V97.2761H58.0335V98.9438H57.3187V97.2761H54.2811V96.4621L57.1202 91.9156H58.0335V96.6209Z" fill="#9C9C9C"/>
<path d="M112.511 206.208C109.092 206.208 109.092 212.433 103.964 212.433C102.564 212.433 96.2776 212.433 93.7133 212.724C93.7126 219.192 93.7133 255.905 93.7078 261.011H709.087V212.724C703.964 212.044 702.254 210.682 698.831 210.682C693.703 210.682 693.703 208.153 690.284 208.153C685.156 208.153 685.156 207.18 680.027 207.18C674.899 207.18 674.899 210.585 669.771 210.585C664.643 210.585 664.643 198.816 659.515 198.816C656.096 198.816 656.096 201.442 650.968 201.442C645.84 201.442 645.84 201.247 640.712 201.247C635.583 201.247 635.583 190.062 630.455 190.062C625.327 190.062 625.327 181.308 621.908 181.308C616.78 181.308 616.78 202.025 611.652 202.025C606.524 202.025 606.524 178.585 601.396 178.585C596.267 178.585 596.267 196.579 591.139 196.579C587.721 196.579 587.721 175.084 582.592 175.084C577.464 175.084 577.464 169.248 572.336 169.248C567.208 169.248 567.208 186.561 562.08 186.561C556.952 186.561 556.952 174.111 553.533 174.111C548.405 174.111 548.405 175.667 543.276 175.667C538.148 175.667 538.148 199.788 533.02 199.788C527.892 199.788 527.892 179.85 522.764 179.85C519.345 179.85 519.345 180.822 514.217 180.822C509.089 180.822 509.089 202.22 503.961 202.22C498.832 202.22 498.832 150.671 493.704 150.671C488.576 150.671 488.576 158.938 485.157 158.938C480.029 158.938 480.029 179.169 474.901 179.169C469.773 179.169 469.773 158.452 464.645 158.452C459.517 158.452 459.517 190.451 454.388 190.451C450.97 190.451 450.97 200.567 445.841 200.567C440.713 200.567 440.713 210.974 435.585 210.974C430.457 210.974 430.457 190.451 425.329 190.451C420.201 190.451 420.201 146.683 416.782 146.683C411.654 146.683 411.654 208.348 406.526 208.348C401.397 208.348 401.397 190.743 396.269 190.743C391.141 190.743 391.141 181.114 386.013 181.114C382.594 181.114 382.594 176.348 377.466 176.348C372.338 176.348 372.338 164.579 367.21 164.579C362.081 164.579 362.081 160.397 356.953 160.397C351.825 160.397 351.825 162.148 348.406 162.148C343.278 162.148 343.278 203.582 338.15 203.582C333.022 203.582 333.022 212.627 327.894 212.627C322.766 212.627 322.766 203.776 317.637 203.776C314.219 203.776 314.219 184.421 309.091 184.421C303.962 184.421 303.962 197.746 298.834 197.746C293.706 197.746 293.706 204.652 288.578 204.652C283.45 204.652 283.45 179.266 280.031 179.266C274.903 179.266 274.903 195.314 269.775 195.314C264.646 195.314 264.646 205.332 259.518 205.332C254.39 205.332 254.39 176.932 249.262 176.932C245.843 176.932 245.843 161.759 240.715 161.759C235.587 161.759 235.587 168.47 230.459 168.47C225.331 168.47 225.331 205.43 220.202 205.43C215.074 205.43 215.074 171.777 211.656 171.777C206.527 171.777 206.527 200.761 201.399 200.761C196.271 200.761 196.271 187.631 191.143 187.631C186.015 187.631 186.015 181.698 180.887 181.698C177.468 181.698 177.468 194.633 172.34 194.633C167.211 194.633 167.211 185.394 162.083 185.394C156.955 185.394 156.955 212.433 151.827 212.433C146.699 212.433 146.699 205.721 143.28 205.721C138.152 205.721 138.152 198.621 133.024 198.621C127.896 198.621 127.896 206.111 122.767 206.111C117.639 206.111 117.639 206.208 112.511 206.208Z" fill="#007AFF" fill-opacity="0.33"/>
<path d="M112.511 206.208C109.092 206.208 109.092 212.433 103.964 212.433C102.564 212.433 96.2776 212.433 93.7133 212.724C93.7126 219.192 93.7133 255.905 93.7078 261.011H709.087V212.724C703.964 212.044 702.254 210.682 698.831 210.682C693.703 210.682 693.703 208.153 690.284 208.153C685.156 208.153 685.156 207.18 680.027 207.18C674.899 207.18 674.899 210.585 669.771 210.585C664.643 210.585 664.643 198.816 659.515 198.816C656.096 198.816 656.096 201.442 650.968 201.442C645.84 201.442 645.84 201.247 640.712 201.247C635.583 201.247 635.583 190.062 630.455 190.062C625.327 190.062 625.327 181.308 621.908 181.308C616.78 181.308 616.78 202.025 611.652 202.025C606.524 202.025 606.524 178.585 601.396 178.585C596.267 178.585 596.267 196.579 591.139 196.579C587.721 196.579 587.721 175.084 582.592 175.084C577.464 175.084 577.464 169.248 572.336 169.248C567.208 169.248 567.208 186.561 562.08 186.561C556.952 186.561 556.952 174.111 553.533 174.111C548.405 174.111 548.405 175.667 543.276 175.667C538.148 175.667 538.148 199.788 533.02 199.788C527.892 199.788 527.892 179.85 522.764 179.85C519.345 179.85 519.345 180.822 514.217 180.822C509.089 180.822 509.089 202.22 503.961 202.22C498.832 202.22 498.832 150.671 493.704 150.671C488.576 150.671 488.576 158.938 485.157 158.938C480.029 158.938 480.029 179.169 474.901 179.169C469.773 179.169 469.773 158.452 464.645 158.452C459.517 158.452 459.517 190.451 454.388 190.451C450.97 190.451 450.97 200.567 445.841 200.567C440.713 200.567 440.713 210.974 435.585 210.974C430.457 210.974 430.457 190.451 425.329 190.451C420.201 190.451 420.201 146.683 416.782 146.683C411.654 146.683 411.654 208.348 406.526 208.348C401.397 208.348 401.397 190.743 396.269 190.743C391.141 190.743 391.141 181.114 386.013 181.114C382.594 181.114 382.594 176.348 377.466 176.348C372.338 176.348 372.338 164.579 367.21 164.579C362.081 164.579 362.081 160.397 356.953 160.397C351.825 160.397 351.825 162.148 348.406 162.148C343.278 162.148 343.278 203.582 338.15 203.582C333.022 203.582 333.022 212.627 327.894 212.627C322.766 212.627 322.766 203.776 317.637 203.776C314.219 203.776 314.219 184.421 309.091 184.421C303.962 184.421 303.962 197.746 298.834 197.746C293.706 197.746 293.706 204.652 288.578 204.652C283.45 204.652 283.45 179.266 280.031 179.266C274.903 179.266 274.903 195.314 269.775 195.314C264.646 195.314 264.646 205.332 259.518 205.332C254.39 205.332 254.39 176.932 249.262 176.932C245.843 176.932 245.843 161.759 240.715 161.759C235.587 161.759 235.587 168.47 230.459 168.47C225.331 168.47 225.331 205.43 220.202 205.43C215.074 205.43 215.074 171.777 211.656 171.777C206.527 171.777 206.527 200.761 201.399 200.761C196.271 200.761 196.271 187.631 191.143 187.631C186.015 187.631 186.015 181.698 180.887 181.698C177.468 181.698 177.468 194.633 172.34 194.633C167.211 194.633 167.211 185.394 162.083 185.394C156.955 185.394 156.955 212.433 151.827 212.433C146.699 212.433 146.699 205.721 143.28 205.721C138.152 205.721 138.152 198.621 133.024 198.621C127.896 198.621 127.896 206.111 122.767 206.111C117.639 206.111 117.639 206.208 112.511 206.208Z" fill="url(#paint0_linear)"/>
<path d="M93.7078 212.724C98.836 212.724 98.836 212.433 103.964 212.433C109.092 212.433 109.092 206.208 112.511 206.208C117.639 206.208 117.639 206.111 122.767 206.111C127.896 206.111 127.896 198.621 133.024 198.621C138.152 198.621 138.152 205.721 143.28 205.721C146.699 205.721 146.699 212.433 151.827 212.433C156.955 212.433 156.955 185.394 162.083 185.394C167.211 185.394 167.211 194.633 172.34 194.633C177.468 194.633 177.468 181.698 180.887 181.698C186.015 181.698 186.015 187.631 191.143 187.631C196.271 187.631 196.271 200.761 201.399 200.761C206.527 200.761 206.527 171.777 211.655 171.777C215.074 171.777 215.074 205.43 220.202 205.43C225.331 205.43 225.331 168.47 230.459 168.47C235.587 168.47 235.587 161.759 240.715 161.759C245.843 161.759 245.843 176.932 249.262 176.932C254.39 176.932 254.39 205.332 259.518 205.332C264.646 205.332 264.646 195.314 269.775 195.314C274.903 195.314 274.903 179.266 280.031 179.266C283.45 179.266 283.45 204.652 288.578 204.652C293.706 204.652 293.706 197.746 298.834 197.746C303.962 197.746 303.962 184.421 309.091 184.421C314.219 184.421 314.219 203.776 317.637 203.776C322.766 203.776 322.766 212.627 327.894 212.627C333.022 212.627 333.022 203.582 338.15 203.582C343.278 203.582 343.278 162.148 348.406 162.148C351.825 162.148 351.825 160.397 356.953 160.397C362.082 160.397 362.082 164.579 367.21 164.579C372.338 164.579 372.338 176.348 377.466 176.348C382.594 176.348 382.594 181.114 386.013 181.114C391.141 181.114 391.141 190.743 396.269 190.743C401.397 190.743 401.397 208.348 406.526 208.348C411.654 208.348 411.654 146.683 416.782 146.683C420.201 146.683 420.201 190.451 425.329 190.451C430.457 190.451 430.457 210.974 435.585 210.974C440.713 210.974 440.713 200.567 445.841 200.567C450.97 200.567 450.97 190.451 454.388 190.451C459.517 190.451 459.517 158.452 464.645 158.452C469.773 158.452 469.773 179.169 474.901 179.169C480.029 179.169 480.029 158.938 485.157 158.938C488.576 158.938 488.576 150.671 493.704 150.671C498.832 150.671 498.832 202.22 503.961 202.22C509.089 202.22 509.089 180.822 514.217 180.822C519.345 180.822 519.345 179.85 522.764 179.85C527.892 179.85 527.892 199.788 533.02 199.788C538.148 199.788 538.148 175.667 543.276 175.667C548.405 175.667 548.405 174.111 553.533 174.111C556.952 174.111 556.952 186.561 562.08 186.561C567.208 186.561 567.208 169.248 572.336 169.248C577.464 169.248 577.464 175.084 582.592 175.084C587.721 175.084 587.721 196.579 591.139 196.579C596.267 196.579 596.267 178.585 601.396 178.585C606.524 178.585 606.524 202.025 611.652 202.025C616.78 202.025 616.78 181.308 621.908 181.308C625.327 181.308 625.327 190.062 630.455 190.062C635.583 190.062 635.583 201.247 640.712 201.247C645.84 201.247 645.84 201.442 650.968 201.442C656.096 201.442 656.096 198.816 659.515 198.816C664.643 198.816 664.643 210.585 669.771 210.585C674.899 210.585 674.899 207.18 680.027 207.18C685.156 207.18 685.156 208.153 690.284 208.153C693.703 208.153 693.703 210.682 698.831 210.682C703.959 210.682 703.959 212.724 709.087 212.724" stroke="#007AFF" stroke-width="0.827247"/>
<rect x="603.11" y="36.4136" width="131.532" height="25.6447" rx="2.89537" stroke="#E5E5E5" stroke-width="0.827247"/>
<path d="M621.725 47.939H622.154C622.393 47.939 622.621 47.912 622.837 47.8579C623.061 47.8039 623.254 47.719 623.416 47.6031C623.578 47.4796 623.706 47.3213 623.798 47.1283C623.899 46.9353 623.949 46.7037 623.949 46.4334C623.949 45.9933 623.814 45.6536 623.544 45.4143C623.281 45.1672 622.911 45.0436 622.432 45.0436C622.084 45.0436 621.779 45.1209 621.517 45.2753C621.254 45.4297 621.038 45.6536 620.868 45.947L620.139 45.5764C620.386 45.1363 620.699 44.812 621.077 44.6035C621.463 44.3874 621.907 44.2793 622.409 44.2793C622.733 44.2793 623.038 44.3256 623.324 44.4182C623.609 44.5109 623.86 44.6499 624.076 44.8352C624.293 45.0128 624.462 45.2367 624.586 45.5069C624.717 45.7694 624.783 46.0705 624.783 46.4103C624.783 46.6342 624.744 46.8465 624.667 47.0472C624.598 47.248 624.497 47.4294 624.366 47.5916C624.242 47.7537 624.096 47.8965 623.926 48.0201C623.756 48.1359 623.578 48.2247 623.393 48.2865L623.428 48.3096C623.66 48.3559 623.872 48.4447 624.065 48.576C624.258 48.6995 624.424 48.8539 624.563 49.0392C624.702 49.2246 624.81 49.433 624.887 49.6646C624.964 49.8963 625.003 50.1395 625.003 50.3943C625.003 50.7726 624.933 51.1085 624.794 51.4019C624.656 51.6953 624.466 51.9423 624.227 52.1431C623.988 52.3438 623.71 52.4982 623.393 52.6063C623.077 52.7067 622.741 52.7569 622.386 52.7569C621.783 52.7569 621.258 52.6256 620.81 52.3631C620.363 52.1006 620.027 51.6798 619.803 51.1007L620.683 50.8344C620.822 51.2281 621.027 51.5215 621.297 51.7146C621.575 51.8999 621.961 51.9925 622.455 51.9925C622.687 51.9925 622.907 51.9539 623.115 51.8767C623.324 51.7995 623.505 51.6914 623.66 51.5524C623.822 51.4057 623.945 51.232 624.03 51.0313C624.123 50.8305 624.169 50.6105 624.169 50.3711C624.169 50.0623 624.111 49.8036 623.995 49.5952C623.88 49.379 623.725 49.2052 623.532 49.074C623.339 48.9427 623.115 48.8501 622.86 48.796C622.613 48.7343 622.355 48.7034 622.084 48.7034H621.725V47.939ZM629.225 45.0436C628.777 45.0436 628.422 45.1633 628.159 45.4027C627.904 45.642 627.711 45.9393 627.58 46.2944C627.449 46.6496 627.364 47.0279 627.325 47.4294C627.294 47.8309 627.279 48.1938 627.279 48.5181C627.279 48.8424 627.294 49.2052 627.325 49.6067C627.364 50.0082 627.449 50.3866 627.58 50.7417C627.711 51.0969 627.904 51.3941 628.159 51.6335C628.422 51.8728 628.777 51.9925 629.225 51.9925C629.672 51.9925 630.024 51.8728 630.279 51.6335C630.541 51.3941 630.738 51.0969 630.869 50.7417C631 50.3866 631.082 50.0082 631.112 49.6067C631.151 49.2052 631.17 48.8424 631.17 48.5181C631.17 48.1938 631.151 47.8309 631.112 47.4294C631.082 47.0279 631 46.6496 630.869 46.2944C630.738 45.9393 630.541 45.642 630.279 45.4027C630.024 45.1633 629.672 45.0436 629.225 45.0436ZM629.225 44.2793C629.811 44.2793 630.286 44.4144 630.649 44.6846C631.012 44.9549 631.294 45.2984 631.495 45.7154C631.695 46.1323 631.83 46.5917 631.9 47.0936C631.969 47.5877 632.004 48.0625 632.004 48.5181C632.004 48.9736 631.969 49.4523 631.9 49.9542C631.83 50.4483 631.695 50.9039 631.495 51.3208C631.294 51.7377 631.012 52.0813 630.649 52.3515C630.286 52.6218 629.811 52.7569 629.225 52.7569C628.638 52.7569 628.163 52.6218 627.8 52.3515C627.437 52.0813 627.155 51.7377 626.955 51.3208C626.754 50.9039 626.619 50.4483 626.549 49.9542C626.48 49.4523 626.445 48.9736 626.445 48.5181C626.445 48.0625 626.48 47.5877 626.549 47.0936C626.619 46.5917 626.754 46.1323 626.955 45.7154C627.155 45.2984 627.437 44.9549 627.8 44.6846C628.163 44.4144 628.638 44.2793 629.225 44.2793ZM634.176 54.2393H633.4L634.176 51.5177H635.114L634.176 54.2393ZM640.515 50.9386C640.592 51.2861 640.735 51.5601 640.944 51.7609C641.152 51.9616 641.442 52.062 641.812 52.062C642.113 52.062 642.357 52.0041 642.542 51.8883C642.735 51.7648 642.882 51.6103 642.982 51.425C643.09 51.232 643.163 51.0158 643.202 50.7765C643.241 50.5294 643.26 50.2785 643.26 50.0237V44.4182H644.094V50.3711C644.094 50.6491 644.055 50.9347 643.978 51.2281C643.909 51.5138 643.781 51.7763 643.596 52.0157C643.418 52.2473 643.183 52.4403 642.889 52.5948C642.596 52.7492 642.229 52.8264 641.789 52.8264C641.225 52.8264 640.754 52.6835 640.376 52.3979C639.998 52.1045 639.762 51.676 639.67 51.1123L640.515 50.9386ZM649.216 49.9194C649.023 49.9194 648.78 49.931 648.486 49.9542C648.201 49.9696 647.923 50.016 647.653 50.0932C647.39 50.1627 647.162 50.2746 646.969 50.429C646.784 50.5834 646.691 50.7958 646.691 51.066C646.691 51.2436 646.726 51.398 646.796 51.5293C646.873 51.6528 646.973 51.757 647.097 51.842C647.22 51.9192 647.355 51.9771 647.502 52.0157C647.656 52.0466 647.811 52.062 647.965 52.062C648.243 52.062 648.483 52.0157 648.683 51.923C648.892 51.8304 649.065 51.7068 649.204 51.5524C649.343 51.3903 649.444 51.205 649.506 50.9965C649.575 50.7803 649.61 50.5526 649.61 50.3132V49.9194H649.216ZM649.61 49.294V49.1551C649.61 48.2208 649.147 47.7537 648.22 47.7537C647.587 47.7537 647.035 47.966 646.564 48.3907L646.101 47.8464C646.61 47.3213 647.375 47.0588 648.394 47.0588C648.656 47.0588 648.907 47.0974 649.147 47.1746C649.394 47.2518 649.606 47.3715 649.784 47.5337C649.961 47.6881 650.104 47.885 650.212 48.1243C650.32 48.3637 650.374 48.6493 650.374 48.9813V51.4019C650.374 51.6103 650.382 51.8304 650.397 52.062C650.421 52.2859 650.444 52.4712 650.467 52.6179H649.726C649.702 52.4867 649.683 52.3438 649.668 52.1894C649.66 52.035 649.656 51.8844 649.656 51.7377H649.633C649.409 52.1006 649.143 52.3631 648.834 52.5253C648.533 52.6797 648.162 52.7569 647.722 52.7569C647.483 52.7569 647.251 52.7222 647.027 52.6527C646.803 52.5909 646.602 52.4944 646.425 52.3631C646.255 52.2242 646.116 52.0581 646.008 51.8651C645.908 51.6644 645.857 51.4328 645.857 51.1702C645.857 50.7301 645.969 50.3866 646.193 50.1395C646.425 49.8847 646.711 49.6955 647.05 49.572C647.398 49.4485 647.764 49.3713 648.151 49.3404C648.544 49.3095 648.903 49.294 649.228 49.294H649.61ZM653.077 47.1978C653.093 47.3445 653.101 47.4912 653.101 47.6379C653.108 47.7769 653.112 47.9197 653.112 48.0664H653.135C653.22 47.9197 653.328 47.7846 653.46 47.6611C653.591 47.5375 653.738 47.4333 653.9 47.3484C654.062 47.2557 654.232 47.1862 654.409 47.1399C654.595 47.0858 654.776 47.0588 654.954 47.0588C655.649 47.0588 656.162 47.2441 656.494 47.6147C656.826 47.9776 656.992 48.4988 656.992 49.1782V52.6179H656.228V49.6183C656.228 49.0161 656.123 48.5567 655.915 48.2401C655.706 47.9158 655.32 47.7537 654.757 47.7537C654.718 47.7537 654.61 47.7691 654.432 47.8C654.255 47.8309 654.066 47.9158 653.865 48.0548C653.672 48.1938 653.498 48.4023 653.344 48.6802C653.189 48.9582 653.112 49.3442 653.112 49.8384V52.6179H652.348V48.3907C652.348 48.244 652.34 48.0587 652.325 47.8348C652.317 47.6109 652.305 47.3985 652.29 47.1978H653.077ZM667.354 52.6179H662.142V51.6567L665.408 48.3328C665.532 48.2092 665.655 48.078 665.779 47.939C665.902 47.8 666.014 47.6533 666.115 47.4989C666.215 47.3445 666.296 47.1824 666.358 47.0125C666.42 46.8426 666.451 46.665 666.451 46.4797C666.451 46.2558 666.408 46.0551 666.323 45.8775C666.246 45.6999 666.134 45.5494 665.987 45.4258C665.841 45.3023 665.671 45.2096 665.478 45.1479C665.285 45.0784 665.08 45.0436 664.864 45.0436C664.447 45.0436 664.092 45.1595 663.798 45.3911C663.505 45.6227 663.316 45.9354 663.231 46.3292L662.351 46.2365C662.467 45.6266 662.744 45.1479 663.185 44.8004C663.632 44.453 664.173 44.2793 664.806 44.2793C665.138 44.2793 665.451 44.3256 665.744 44.4182C666.045 44.5032 666.308 44.6344 666.532 44.812C666.763 44.9896 666.945 45.2135 667.076 45.4837C667.215 45.7463 667.284 46.0551 667.284 46.4103C667.284 46.7268 667.234 47.0164 667.134 47.2789C667.041 47.5414 666.918 47.7885 666.763 48.0201C666.609 48.2517 666.431 48.4718 666.23 48.6802C666.037 48.8887 665.837 49.0933 665.628 49.294L663.046 51.8535H667.354V52.6179ZM671.448 45.0436C671 45.0436 670.645 45.1633 670.383 45.4027C670.128 45.642 669.935 45.9393 669.804 46.2944C669.672 46.6496 669.587 47.0279 669.549 47.4294C669.518 47.8309 669.502 48.1938 669.502 48.5181C669.502 48.8424 669.518 49.2052 669.549 49.6067C669.587 50.0082 669.672 50.3866 669.804 50.7417C669.935 51.0969 670.128 51.3941 670.383 51.6335C670.645 51.8728 671 51.9925 671.448 51.9925C671.896 51.9925 672.247 51.8728 672.502 51.6335C672.765 51.3941 672.961 51.0969 673.093 50.7417C673.224 50.3866 673.305 50.0082 673.336 49.6067C673.375 49.2052 673.394 48.8424 673.394 48.5181C673.394 48.1938 673.375 47.8309 673.336 47.4294C673.305 47.0279 673.224 46.6496 673.093 46.2944C672.961 45.9393 672.765 45.642 672.502 45.4027C672.247 45.1633 671.896 45.0436 671.448 45.0436ZM671.448 44.2793C672.035 44.2793 672.51 44.4144 672.873 44.6846C673.236 44.9549 673.517 45.2984 673.718 45.7154C673.919 46.1323 674.054 46.5917 674.123 47.0936C674.193 47.5877 674.228 48.0625 674.228 48.5181C674.228 48.9736 674.193 49.4523 674.123 49.9542C674.054 50.4483 673.919 50.9039 673.718 51.3208C673.517 51.7377 673.236 52.0813 672.873 52.3515C672.51 52.6218 672.035 52.7569 671.448 52.7569C670.861 52.7569 670.387 52.6218 670.024 52.3515C669.661 52.0813 669.379 51.7377 669.178 51.3208C668.977 50.9039 668.842 50.4483 668.773 49.9542C668.703 49.4523 668.669 48.9736 668.669 48.5181C668.669 48.0625 668.703 47.5877 668.773 47.0936C668.842 46.5917 668.977 46.1323 669.178 45.7154C669.379 45.2984 669.661 44.9549 670.024 44.6846C670.387 44.4144 670.861 44.2793 671.448 44.2793ZM680.638 52.6179H675.427V51.6567L678.693 48.3328C678.816 48.2092 678.94 48.078 679.063 47.939C679.187 47.8 679.299 47.6533 679.399 47.4989C679.499 47.3445 679.581 47.1824 679.642 47.0125C679.704 46.8426 679.735 46.665 679.735 46.4797C679.735 46.2558 679.692 46.0551 679.608 45.8775C679.53 45.6999 679.418 45.5494 679.272 45.4258C679.125 45.3023 678.955 45.2096 678.762 45.1479C678.569 45.0784 678.364 45.0436 678.148 45.0436C677.731 45.0436 677.376 45.1595 677.083 45.3911C676.789 45.6227 676.6 45.9354 676.515 46.3292L675.635 46.2365C675.751 45.6266 676.029 45.1479 676.469 44.8004C676.917 44.453 677.457 44.2793 678.09 44.2793C678.422 44.2793 678.735 44.3256 679.028 44.4182C679.33 44.5032 679.592 44.6344 679.816 44.812C680.048 44.9896 680.229 45.2135 680.36 45.4837C680.499 45.7463 680.569 46.0551 680.569 46.4103C680.569 46.7268 680.519 47.0164 680.418 47.2789C680.326 47.5414 680.202 47.7885 680.048 48.0201C679.893 48.2517 679.716 48.4718 679.515 48.6802C679.322 48.8887 679.121 49.0933 678.913 49.294L676.33 51.8535H680.638V52.6179ZM685.543 52.6179H684.709V45.4606L683.239 46.7577L682.717 46.1323L684.802 44.4182H685.543V52.6179Z" fill="#333333"/>
<path fill-rule="evenodd" clip-rule="evenodd" d="M716.857 46.4785C716.857 45.5647 717.598 44.824 718.511 44.824H725.129C726.043 44.824 726.784 45.5647 726.784 46.4785V53.0964C726.784 54.0102 726.043 54.7509 725.129 54.7509H718.511C717.598 54.7509 716.857 54.0102 716.857 53.0964V46.4785Z" stroke="#333333" stroke-width="1.65449" stroke-linecap="round" stroke-linejoin="round"/>
<path d="M724.026 43.7209V45.9269" stroke="#333333" stroke-width="1.65449" stroke-linecap="round" stroke-linejoin="round"/>
<path d="M719.614 43.7209V45.9269" stroke="#333333" stroke-width="1.65449" stroke-linecap="round" stroke-linejoin="round"/>
<path d="M716.857 48.1328H726.784" stroke="#333333" stroke-width="1.65449" stroke-linecap="round" stroke-linejoin="round"/>
<path d="M26.9576 41.4715H31.1666L37.1426 51.2396H37.1823V41.4715H40.2795V55.5281H36.2293L30.0945 45.5217H30.0548V55.5281H26.9576V41.4715ZM48.8253 54.317H48.7856C48.4547 54.8332 48.0113 55.2038 47.4554 55.4288C46.9127 55.6538 46.3369 55.7663 45.7281 55.7663C45.278 55.7663 44.8412 55.7001 44.4177 55.5678C44.0074 55.4487 43.6434 55.2634 43.3257 55.0119C43.0081 54.7604 42.7566 54.4493 42.5713 54.0787C42.386 53.7081 42.2933 53.278 42.2933 52.7882C42.2933 52.2323 42.3926 51.7624 42.5911 51.3786C42.8029 50.9948 43.0809 50.6771 43.425 50.4256C43.7824 50.1741 44.1861 49.9822 44.6361 49.8499C45.0861 49.7043 45.5494 49.5984 46.0259 49.5322C46.5156 49.466 46.9987 49.4263 47.4752 49.4131C47.9649 49.3998 48.415 49.3932 48.8253 49.3932C48.8253 48.8638 48.6334 48.4468 48.2495 48.1424C47.8789 47.8247 47.4355 47.6659 46.9193 47.6659C46.4296 47.6659 45.9795 47.7718 45.5692 47.9836C45.1721 48.1821 44.8148 48.4601 44.4971 48.8174L42.9088 47.1894C43.4647 46.6732 44.1133 46.2894 44.8545 46.0379C45.5957 45.7732 46.3634 45.6408 47.1575 45.6408C48.0311 45.6408 48.7459 45.7533 49.3018 45.9783C49.8709 46.1901 50.3209 46.5078 50.6518 46.9313C50.996 47.3549 51.2342 47.8777 51.3666 48.4998C51.4989 49.1086 51.5651 49.8168 51.5651 50.6242V55.5281H48.8253V54.317ZM48.0907 51.2992C47.8657 51.2992 47.5811 51.3124 47.237 51.3389C46.9061 51.3521 46.5818 51.4051 46.2641 51.4977C45.9597 51.5904 45.695 51.7294 45.47 51.9147C45.2582 52.1 45.1523 52.3581 45.1523 52.689C45.1523 53.0463 45.3045 53.3111 45.6089 53.4831C45.9134 53.6552 46.231 53.7412 46.5619 53.7412C46.8531 53.7412 47.1311 53.7015 47.3958 53.6221C47.6737 53.5427 47.9186 53.4302 48.1304 53.2846C48.3422 53.139 48.5076 52.9537 48.6267 52.7287C48.7591 52.5037 48.8253 52.2389 48.8253 51.9345V51.2992H48.0907ZM60.0052 48.2615H57.3845V51.4779C57.3845 51.7426 57.3977 51.9875 57.4242 52.2125C57.4507 52.4242 57.5102 52.6095 57.6029 52.7684C57.6955 52.9272 57.8345 53.053 58.0198 53.1456C58.2184 53.225 58.4765 53.2647 58.7941 53.2647C58.953 53.2647 59.1581 53.2515 59.4096 53.225C59.6743 53.1853 59.8728 53.1059 60.0052 52.9868V55.4685C59.6743 55.5876 59.3302 55.6671 58.9728 55.7068C58.6154 55.7465 58.2647 55.7663 57.9205 55.7663C57.4176 55.7663 56.9543 55.7134 56.5308 55.6075C56.1072 55.5016 55.7366 55.3362 55.419 55.1111C55.1013 54.8729 54.8498 54.5685 54.6645 54.1979C54.4924 53.8273 54.4064 53.3772 54.4064 52.8478V48.2615H52.5004V45.8791H54.4064V43.0201H57.3845V45.8791H60.0052V48.2615ZM70.8102 55.5281H67.9513V54.2177H67.9116C67.8057 54.403 67.6667 54.5883 67.4946 54.7736C67.3358 54.9589 67.1373 55.1244 66.899 55.27C66.6608 55.4156 66.3894 55.5347 66.085 55.6273C65.7806 55.72 65.4497 55.7663 65.0923 55.7663C64.3379 55.7663 63.7224 55.6538 63.2459 55.4288C62.7826 55.1906 62.4187 54.8663 62.1539 54.456C61.9024 54.0456 61.7304 53.5625 61.6377 53.0066C61.5583 52.4507 61.5186 51.8485 61.5186 51.1999V45.8791H64.4967V50.6043C64.4967 50.8823 64.5033 51.1734 64.5165 51.4779C64.543 51.7691 64.6026 52.0404 64.6952 52.2919C64.8011 52.5434 64.9533 52.7485 65.1519 52.9074C65.3637 53.0662 65.6615 53.1456 66.0453 53.1456C66.4291 53.1456 66.7402 53.0794 66.9784 52.9471C67.2167 52.8015 67.3954 52.6162 67.5145 52.3912C67.6469 52.1529 67.7329 51.8882 67.7726 51.597C67.8123 51.3058 67.8322 51.0014 67.8322 50.6837V45.8791H70.8102V55.5281ZM72.9191 45.8791H75.8972V47.4277H75.9369C76.2546 46.8321 76.6318 46.3886 77.0686 46.0975C77.5054 45.793 78.0547 45.6408 78.7165 45.6408C78.8885 45.6408 79.0606 45.6474 79.2327 45.6607C79.4047 45.6739 79.5636 45.7004 79.7092 45.7401V48.4601C79.4974 48.3939 79.2856 48.3476 79.0738 48.3211C78.8753 48.2814 78.6635 48.2615 78.4385 48.2615C77.8694 48.2615 77.4193 48.341 77.0884 48.4998C76.7575 48.6586 76.4994 48.8836 76.3141 49.1748C76.1421 49.4528 76.0296 49.7903 75.9766 50.1874C75.9237 50.5844 75.8972 51.0212 75.8972 51.4977V55.5281H72.9191V45.8791ZM87.0596 54.317H87.0199C86.689 54.8332 86.2456 55.2038 85.6897 55.4288C85.147 55.6538 84.5712 55.7663 83.9624 55.7663C83.5124 55.7663 83.0756 55.7001 82.652 55.5678C82.2417 55.4487 81.8777 55.2634 81.5601 55.0119C81.2424 54.7604 80.9909 54.4493 80.8056 54.0787C80.6203 53.7081 80.5277 53.278 80.5277 52.7882C80.5277 52.2323 80.6269 51.7624 80.8255 51.3786C81.0372 50.9948 81.3152 50.6771 81.6593 50.4256C82.0167 50.1741 82.4204 49.9822 82.8704 49.8499C83.3204 49.7043 83.7837 49.5984 84.2602 49.5322C84.7499 49.466 85.233 49.4263 85.7095 49.4131C86.1993 49.3998 86.6493 49.3932 87.0596 49.3932C87.0596 48.8638 86.8677 48.4468 86.4838 48.1424C86.1132 47.8247 85.6698 47.6659 85.1536 47.6659C84.6639 47.6659 84.2139 47.7718 83.8036 47.9836C83.4065 48.1821 83.0491 48.4601 82.7314 48.8174L81.1431 47.1894C81.699 46.6732 82.3476 46.2894 83.0888 46.0379C83.83 45.7732 84.5977 45.6408 85.3919 45.6408C86.2654 45.6408 86.9802 45.7533 87.5361 45.9783C88.1052 46.1901 88.5553 46.5078 88.8862 46.9313C89.2303 47.3549 89.4685 47.8777 89.6009 48.4998C89.7333 49.1086 89.7994 49.8168 89.7994 50.6242V55.5281H87.0596V54.317ZM86.325 51.2992C86.1 51.2992 85.8154 51.3124 85.4713 51.3389C85.1404 51.3521 84.8161 51.4051 84.4984 51.4977C84.194 51.5904 83.9293 51.7294 83.7043 51.9147C83.4925 52.1 83.3866 52.3581 83.3866 52.689C83.3866 53.0463 83.5388 53.3111 83.8433 53.4831C84.1477 53.6552 84.4654 53.7412 84.7963 53.7412C85.0874 53.7412 85.3654 53.7015 85.6301 53.6221C85.9081 53.5427 86.1529 53.4302 86.3647 53.2846C86.5765 53.139 86.7419 52.9537 86.8611 52.7287C86.9934 52.5037 87.0596 52.2389 87.0596 51.9345V51.2992H86.325ZM91.7076 40.5185H94.6857V55.5281H91.7076V40.5185ZM115.804 54.5354C114.89 55.0119 113.937 55.356 112.945 55.5678C111.952 55.7796 110.939 55.8854 109.907 55.8854C108.808 55.8854 107.796 55.7134 106.869 55.3692C105.943 55.0251 105.142 54.5354 104.467 53.9001C103.792 53.2515 103.263 52.4706 102.879 51.5573C102.508 50.644 102.323 49.6248 102.323 48.4998C102.323 47.3747 102.508 46.3556 102.879 45.4423C103.263 44.529 103.792 43.7547 104.467 43.1194C105.142 42.4708 105.943 41.9745 106.869 41.6303C107.796 41.2862 108.808 41.1141 109.907 41.1141C111.032 41.1141 112.064 41.2531 113.004 41.5311C113.957 41.7958 114.791 42.259 115.506 42.9208L113.322 45.3033C112.898 44.8665 112.422 44.5356 111.892 44.3106C111.363 44.0856 110.701 43.9731 109.907 43.9731C109.245 43.9731 108.643 44.0856 108.1 44.3106C107.571 44.5356 107.114 44.8533 106.73 45.2636C106.347 45.6607 106.049 46.1372 105.837 46.6931C105.638 47.249 105.539 47.8512 105.539 48.4998C105.539 49.1616 105.638 49.7704 105.837 50.3263C106.049 50.869 106.347 51.3455 106.73 51.7558C107.114 52.1529 107.571 52.464 108.1 52.689C108.643 52.914 109.245 53.0265 109.907 53.0265C110.582 53.0265 111.164 52.9537 111.654 52.8081C112.144 52.6493 112.534 52.4904 112.826 52.3316V50.0484H110.304V47.1894H115.804V54.5354ZM124.208 54.317H124.168C123.838 54.8332 123.394 55.2038 122.838 55.4288C122.296 55.6538 121.72 55.7663 121.111 55.7663C120.661 55.7663 120.224 55.7001 119.801 55.5678C119.39 55.4487 119.026 55.2634 118.709 55.0119C118.391 54.7604 118.139 54.4493 117.954 54.0787C117.769 53.7081 117.676 53.278 117.676 52.7882C117.676 52.2323 117.775 51.7624 117.974 51.3786C118.186 50.9948 118.464 50.6771 118.808 50.4256C119.165 50.1741 119.569 49.9822 120.019 49.8499C120.469 49.7043 120.932 49.5984 121.409 49.5322C121.898 49.466 122.382 49.4263 122.858 49.4131C123.348 49.3998 123.798 49.3932 124.208 49.3932C124.208 48.8638 124.016 48.4468 123.632 48.1424C123.262 47.8247 122.818 47.6659 122.302 47.6659C121.812 47.6659 121.362 47.7718 120.952 47.9836C120.555 48.1821 120.198 48.4601 119.88 48.8174L118.292 47.1894C118.848 46.6732 119.496 46.2894 120.237 46.0379C120.979 45.7732 121.746 45.6408 122.54 45.6408C123.414 45.6408 124.129 45.7533 124.685 45.9783C125.254 46.1901 125.704 46.5078 126.035 46.9313C126.379 47.3549 126.617 47.8777 126.749 48.4998C126.882 49.1086 126.948 49.8168 126.948 50.6242V55.5281H124.208V54.317ZM123.474 51.2992C123.249 51.2992 122.964 51.3124 122.62 51.3389C122.289 51.3521 121.965 51.4051 121.647 51.4977C121.343 51.5904 121.078 51.7294 120.853 51.9147C120.641 52.1 120.535 52.3581 120.535 52.689C120.535 53.0463 120.687 53.3111 120.992 53.4831C121.296 53.6552 121.614 53.7412 121.945 53.7412C122.236 53.7412 122.514 53.7015 122.779 53.6221C123.057 53.5427 123.302 53.4302 123.513 53.2846C123.725 53.139 123.891 52.9537 124.01 52.7287C124.142 52.5037 124.208 52.2389 124.208 51.9345V51.2992H123.474ZM134.276 48.7182C133.84 48.1755 133.264 47.9042 132.549 47.9042C132.298 47.9042 132.053 47.9637 131.814 48.0829C131.576 48.202 131.457 48.4071 131.457 48.6983C131.457 48.9366 131.576 49.1153 131.814 49.2344C132.066 49.3403 132.377 49.4395 132.748 49.5322C133.131 49.6116 133.535 49.7043 133.959 49.8101C134.395 49.9028 134.799 50.055 135.17 50.2668C135.554 50.4786 135.865 50.7697 136.103 51.1404C136.354 51.4977 136.48 51.9808 136.48 52.5897C136.48 53.2118 136.341 53.728 136.063 54.1383C135.798 54.5354 135.454 54.8597 135.031 55.1111C134.607 55.3494 134.131 55.5148 133.601 55.6075C133.072 55.7134 132.549 55.7663 132.033 55.7663C131.358 55.7663 130.676 55.6737 129.988 55.4884C129.3 55.2898 128.717 54.9457 128.241 54.456L130.047 52.4507C130.325 52.7949 130.63 53.0596 130.961 53.2449C131.305 53.4169 131.702 53.503 132.152 53.503C132.496 53.503 132.807 53.4566 133.085 53.364C133.363 53.2581 133.502 53.0728 133.502 52.8081C133.502 52.5566 133.376 52.3713 133.125 52.2522C132.887 52.1198 132.575 52.0139 132.192 51.9345C131.821 51.8419 131.417 51.7492 130.981 51.6566C130.557 51.5507 130.153 51.3985 129.769 51.1999C129.399 51.0014 129.088 50.7234 128.836 50.3661C128.598 49.9954 128.479 49.5057 128.479 48.8969C128.479 48.3277 128.591 47.838 128.816 47.4277C129.055 47.0174 129.359 46.6798 129.73 46.4151C130.114 46.1504 130.55 45.9585 131.04 45.8394C131.53 45.707 132.026 45.6408 132.529 45.6408C133.164 45.6408 133.806 45.7335 134.455 45.9188C135.104 46.1041 135.653 46.435 136.103 46.9115L134.276 48.7182ZM144.259 41.4715H148.904C150.03 41.4715 151.095 41.5972 152.101 41.8487C153.12 42.1002 154.007 42.5105 154.761 43.0797C155.516 43.6356 156.111 44.3635 156.548 45.2636C156.998 46.1636 157.223 47.2556 157.223 48.5395C157.223 49.6778 157.005 50.6837 156.568 51.5573C156.145 52.4176 155.569 53.1456 154.841 53.7412C154.113 54.3236 153.272 54.767 152.319 55.0714C151.366 55.3759 150.367 55.5281 149.321 55.5281H144.259V41.4715ZM147.356 52.6691H148.964C149.679 52.6691 150.341 52.5963 150.949 52.4507C151.571 52.3051 152.108 52.0669 152.558 51.736C153.008 51.3918 153.358 50.9484 153.61 50.4058C153.875 49.8499 154.007 49.1748 154.007 48.3807C154.007 47.6924 153.875 47.0968 153.61 46.5938C153.358 46.0776 153.014 45.6541 152.577 45.3232C152.141 44.9923 151.624 44.7474 151.029 44.5886C150.446 44.4165 149.831 44.3305 149.182 44.3305H147.356V52.6691ZM163.612 44.807L160.793 47.2887L159.105 45.343L163.691 41.4715H166.471V55.5281H163.612V44.807Z" fill="#333333"/>
<path d="M28.4817 311.024H26.0397V310.388H31.6584V311.024H29.2163V317.337H28.4817V311.024ZM34.6053 317.387C34.1024 317.387 33.649 317.274 33.2453 317.049C32.8416 316.818 32.524 316.5 32.2924 316.096C32.0607 315.693 31.9449 315.236 31.9449 314.726C31.9449 314.217 32.0607 313.76 32.2924 313.356C32.524 312.953 32.8416 312.638 33.2453 312.413C33.649 312.188 34.1024 312.076 34.6053 312.076C35.1083 312.076 35.5616 312.188 35.9653 312.413C36.369 312.638 36.6834 312.953 36.9084 313.356C37.14 313.76 37.2558 314.217 37.2558 314.726C37.2558 315.236 37.14 315.693 36.9084 316.096C36.6834 316.5 36.369 316.818 35.9653 317.049C35.5616 317.274 35.1083 317.387 34.6053 317.387ZM34.6053 316.761C34.9759 316.761 35.3068 316.679 35.598 316.513C35.8958 316.341 36.1275 316.1 36.2929 315.789C36.4584 315.478 36.5411 315.123 36.5411 314.726C36.5411 314.329 36.4584 313.975 36.2929 313.664C36.1275 313.353 35.8958 313.115 35.598 312.949C35.3068 312.777 34.9759 312.691 34.6053 312.691C34.2347 312.691 33.9005 312.777 33.6027 312.949C33.3115 313.115 33.0799 313.353 32.9078 313.664C32.7424 313.975 32.6597 314.329 32.6597 314.726C32.6597 315.123 32.7424 315.478 32.9078 315.789C33.0799 316.1 33.3115 316.341 33.6027 316.513C33.9005 316.679 34.2347 316.761 34.6053 316.761ZM41.7755 317.019C41.6431 317.139 41.4776 317.231 41.2791 317.297C41.0872 317.357 40.8853 317.387 40.6736 317.387C40.1838 317.387 39.8066 317.254 39.5419 316.99C39.2772 316.725 39.1448 316.351 39.1448 315.868V312.711H38.2117V312.116H39.1448V310.974H39.8496V312.116H41.4379V312.711H39.8496V315.828C39.8496 316.139 39.9257 316.378 40.0779 316.543C40.2368 316.702 40.4618 316.781 40.753 316.781C40.8986 316.781 41.0375 316.758 41.1699 316.712C41.3089 316.665 41.428 316.599 41.5273 316.513L41.7755 317.019ZM45.216 312.076C45.8976 312.076 46.4204 312.248 46.7844 312.592C47.1484 312.93 47.3304 313.433 47.3304 314.101V317.337H46.6554V316.523C46.4965 316.794 46.2616 317.006 45.9506 317.158C45.6461 317.311 45.2822 317.387 44.8586 317.387C44.2762 317.387 43.813 317.248 43.4688 316.97C43.1247 316.692 42.9526 316.325 42.9526 315.868C42.9526 315.425 43.1115 315.067 43.4291 314.796C43.7534 314.525 44.2663 314.389 44.9678 314.389H46.6256V314.071C46.6256 313.621 46.4999 313.28 46.2484 313.049C45.9969 312.81 45.6296 312.691 45.1465 312.691C44.8156 312.691 44.4979 312.748 44.1935 312.86C43.8891 312.966 43.6277 313.115 43.4093 313.307L43.0916 312.781C43.3563 312.556 43.674 312.384 44.0446 312.264C44.4152 312.139 44.8057 312.076 45.216 312.076ZM44.9678 316.831C45.3649 316.831 45.7057 316.742 45.9903 316.563C46.2748 316.378 46.4866 316.113 46.6256 315.769V314.915H44.9877C44.0942 314.915 43.6475 315.226 43.6475 315.848C43.6475 316.153 43.7633 316.394 43.995 316.573C44.2266 316.745 44.5509 316.831 44.9678 316.831ZM49.5757 309.971H50.2805V317.337H49.5757V309.971ZM60.3955 317.337L58.8072 315.104C58.6285 315.123 58.4432 315.133 58.2512 315.133H56.385V317.337H55.6504V310.388H58.2512C59.1381 310.388 59.8329 310.6 60.3359 311.024C60.8389 311.447 61.0904 312.03 61.0904 312.771C61.0904 313.313 60.9514 313.773 60.6734 314.151C60.4021 314.521 60.0116 314.789 59.502 314.955L61.1996 317.337H60.3955ZM58.2314 314.508C58.9197 314.508 59.4458 314.356 59.8098 314.051C60.1738 313.747 60.3558 313.32 60.3558 312.771C60.3558 312.208 60.1738 311.778 59.8098 311.48C59.4458 311.176 58.9197 311.024 58.2314 311.024H56.385V314.508H58.2314ZM67.5527 314.945H63.1848C63.2245 315.487 63.433 315.928 63.8102 316.265C64.1875 316.596 64.664 316.761 65.2397 316.761C65.564 316.761 65.8618 316.705 66.1331 316.593C66.4045 316.474 66.6394 316.301 66.838 316.076L67.235 316.533C67.0034 316.811 66.7122 317.023 66.3615 317.168C66.0173 317.314 65.6368 317.387 65.2199 317.387C64.6838 317.387 64.2073 317.274 63.7904 317.049C63.3801 316.818 63.0591 316.5 62.8275 316.096C62.5958 315.693 62.48 315.236 62.48 314.726C62.48 314.217 62.5892 313.76 62.8076 313.356C63.0326 312.953 63.3371 312.638 63.7209 312.413C64.1114 312.188 64.5481 312.076 65.0313 312.076C65.5144 312.076 65.9478 312.188 66.3317 312.413C66.7155 312.638 67.0166 312.953 67.235 313.356C67.4534 313.754 67.5626 314.21 67.5626 314.726L67.5527 314.945ZM65.0313 312.681C64.5283 312.681 64.1047 312.844 63.7606 313.168C63.4231 313.485 63.2312 313.902 63.1848 314.419H66.8876C66.8413 313.902 66.646 313.485 66.3019 313.168C65.9644 312.844 65.5408 312.681 65.0313 312.681ZM73.6189 312.116L71.296 317.337H70.5713L68.2583 312.116H68.9929L70.9486 316.563L72.924 312.116H73.6189ZM79.3436 314.945H74.9757C75.0154 315.487 75.2239 315.928 75.6011 316.265C75.9783 316.596 76.4548 316.761 77.0306 316.761C77.3549 316.761 77.6527 316.705 77.924 316.593C78.1953 316.474 78.4303 316.301 78.6288 316.076L79.0259 316.533C78.7943 316.811 78.5031 317.023 78.1523 317.168C77.8082 317.314 77.4277 317.387 77.0107 317.387C76.4747 317.387 75.9982 317.274 75.5812 317.049C75.1709 316.818 74.85 316.5 74.6183 316.096C74.3867 315.693 74.2709 315.236 74.2709 314.726C74.2709 314.217 74.3801 313.76 74.5985 313.356C74.8235 312.953 75.1279 312.638 75.5118 312.413C75.9022 312.188 76.339 312.076 76.8221 312.076C77.3052 312.076 77.7387 312.188 78.1225 312.413C78.5064 312.638 78.8075 312.953 79.0259 313.356C79.2443 313.754 79.3535 314.21 79.3535 314.726L79.3436 314.945ZM76.8221 312.681C76.3191 312.681 75.8956 312.844 75.5515 313.168C75.2139 313.485 75.022 313.902 74.9757 314.419H78.6785C78.6321 313.902 78.4369 313.485 78.0928 313.168C77.7552 312.844 77.3317 312.681 76.8221 312.681ZM83.7794 312.076C84.4346 312.076 84.9541 312.268 85.338 312.652C85.7284 313.029 85.9236 313.581 85.9236 314.309V317.337H85.2188V314.379C85.2188 313.836 85.0832 313.423 84.8118 313.138C84.5405 312.853 84.1533 312.711 83.6504 312.711C83.0878 312.711 82.6411 312.88 82.3102 313.217C81.9859 313.548 81.8238 314.008 81.8238 314.597V317.337H81.119V312.116H81.794V313.078C81.9859 312.761 82.2507 312.516 82.5882 312.344C82.9323 312.165 83.3294 312.076 83.7794 312.076ZM92.8734 312.116V317.337H92.1984V316.384C92.0131 316.702 91.7583 316.95 91.434 317.129C91.1097 317.301 90.7391 317.387 90.3222 317.387C89.6405 317.387 89.1012 317.198 88.7041 316.821C88.3136 316.437 88.1184 315.878 88.1184 315.143V312.116H88.8232V315.074C88.8232 315.623 88.9589 316.04 89.2302 316.325C89.5016 316.609 89.8887 316.751 90.3917 316.751C90.941 316.751 91.3745 316.586 91.6921 316.255C92.0098 315.918 92.1686 315.451 92.1686 314.855V312.116H92.8734ZM99.7249 314.945H95.357C95.3967 315.487 95.6052 315.928 95.9824 316.265C96.3596 316.596 96.8361 316.761 97.4119 316.761C97.7362 316.761 98.034 316.705 98.3053 316.593C98.5767 316.474 98.8116 316.301 99.0101 316.076L99.4072 316.533C99.1756 316.811 98.8844 317.023 98.5336 317.168C98.1895 317.314 97.809 317.387 97.392 317.387C96.856 317.387 96.3795 317.274 95.9625 317.049C95.5522 316.818 95.2313 316.5 94.9996 316.096C94.768 315.693 94.6522 315.236 94.6522 314.726C94.6522 314.217 94.7614 313.76 94.9798 313.356C95.2048 312.953 95.5092 312.638 95.8931 312.413C96.2835 312.188 96.7203 312.076 97.2034 312.076C97.6865 312.076 98.12 312.188 98.5039 312.413C98.8877 312.638 99.1888 312.953 99.4072 313.356C99.6256 313.754 99.7348 314.21 99.7348 314.726L99.7249 314.945ZM97.2034 312.681C96.7005 312.681 96.2769 312.844 95.9328 313.168C95.5953 313.485 95.4033 313.902 95.357 314.419H99.0598C99.0134 313.902 98.8182 313.485 98.4741 313.168C98.1366 312.844 97.713 312.681 97.2034 312.681Z" fill="#9C9C9C"/>
<path d="M38.1109 336.503C38.1109 337.588 37.7138 338.521 36.9197 339.302C36.1255 340.07 34.9806 340.547 33.4849 340.732V342.955H31.4995V340.791C30.5201 340.738 29.5869 340.566 28.7001 340.275C27.8133 339.984 27.0986 339.627 26.5559 339.203L27.6479 336.781C28.1508 337.152 28.7398 337.463 29.4149 337.714C30.0899 337.966 30.7848 338.124 31.4995 338.191V334.875C30.5598 334.65 29.7656 334.398 29.1171 334.12C28.4685 333.843 27.9258 333.439 27.489 332.909C27.0523 332.367 26.8339 331.652 26.8339 330.765C26.8339 329.667 27.2309 328.727 28.0251 327.946C28.8325 327.152 29.9906 326.669 31.4995 326.497V324.293H33.4849V326.457C35.113 326.589 36.4564 326.993 37.5153 327.668L36.5226 330.11C35.5299 329.541 34.5173 329.197 33.4849 329.078V332.453C34.4115 332.665 35.1924 332.909 35.8277 333.187C36.4763 333.452 37.0189 333.856 37.4557 334.398C37.8925 334.928 38.1109 335.629 38.1109 336.503ZM30.0303 330.606C30.0303 330.937 30.1561 331.209 30.4076 331.42C30.6591 331.632 31.023 331.811 31.4995 331.956V329.137C30.9966 329.256 30.626 329.448 30.3877 329.713C30.1495 329.964 30.0303 330.262 30.0303 330.606ZM33.4849 338.111C33.9614 338.005 34.3188 337.833 34.557 337.595C34.7953 337.357 34.9144 337.072 34.9144 336.741C34.9144 336.41 34.7887 336.139 34.5372 335.927C34.2989 335.715 33.9482 335.53 33.4849 335.371V338.111ZM50.1211 326.675V328.76L44.9591 340.573H41.4648L46.4482 329.296H41.842V331.559H38.9831V326.675H50.1211ZM57.8559 331.857C58.7428 331.857 59.5501 332.036 60.2781 332.393C61.0061 332.751 61.5819 333.26 62.0054 333.922C62.429 334.57 62.6407 335.325 62.6407 336.185C62.6407 337.112 62.4091 337.926 61.9459 338.627C61.4826 339.329 60.8473 339.871 60.0399 340.255C59.2457 340.626 58.3589 340.811 57.3795 340.811C55.4338 340.811 53.9116 340.216 52.813 339.024C51.7145 337.833 51.1652 336.132 51.1652 333.922C51.1652 332.347 51.463 330.997 52.0586 329.872C52.6542 328.747 53.4815 327.893 54.5403 327.311C55.6125 326.728 56.85 326.437 58.253 326.437C58.9942 326.437 59.7024 326.523 60.3774 326.695C61.0657 326.854 61.648 327.086 62.1245 327.39L60.9333 329.753C60.245 329.289 59.3781 329.058 58.3324 329.058C57.1544 329.058 56.2213 329.402 55.533 330.09C54.8448 330.778 54.4742 331.778 54.4212 333.088C55.2418 332.267 56.3868 331.857 57.8559 331.857ZM57.2008 338.409C57.889 338.409 58.4449 338.224 58.8685 337.853C59.3053 337.482 59.5237 336.979 59.5237 336.344C59.5237 335.709 59.3053 335.206 58.8685 334.835C58.4449 334.451 57.8758 334.259 57.1611 334.259C56.4596 334.259 55.8838 334.458 55.4338 334.855C54.9837 335.239 54.7587 335.735 54.7587 336.344C54.7587 336.953 54.9771 337.449 55.4139 337.833C55.8507 338.217 56.4463 338.409 57.2008 338.409ZM70.4973 331.857C71.3841 331.857 72.1915 332.036 72.9195 332.393C73.6475 332.751 74.2232 333.26 74.6468 333.922C75.0703 334.57 75.2821 335.325 75.2821 336.185C75.2821 337.112 75.0505 337.926 74.5872 338.627C74.124 339.329 73.4886 339.871 72.6813 340.255C71.8871 340.626 71.0003 340.811 70.0208 340.811C68.0751 340.811 66.553 340.216 65.4544 339.024C64.3558 337.833 63.8065 336.132 63.8065 333.922C63.8065 332.347 64.1044 330.997 64.7 329.872C65.2956 328.747 66.1228 327.893 67.1817 327.311C68.2538 326.728 69.4914 326.437 70.8944 326.437C71.6356 326.437 72.3437 326.523 73.0188 326.695C73.707 326.854 74.2894 327.086 74.7659 327.39L73.5747 329.753C72.8864 329.289 72.0195 329.058 70.9738 329.058C69.7958 329.058 68.8627 329.402 68.1744 330.09C67.4861 330.778 67.1155 331.778 67.0626 333.088C67.8832 332.267 69.0281 331.857 70.4973 331.857ZM69.8421 338.409C70.5304 338.409 71.0863 338.224 71.5099 337.853C71.9467 337.482 72.165 336.979 72.165 336.344C72.165 335.709 71.9467 335.206 71.5099 334.835C71.0863 334.451 70.5172 334.259 69.8024 334.259C69.1009 334.259 68.5252 334.458 68.0751 334.855C67.6251 335.239 67.4001 335.735 67.4001 336.344C67.4001 336.953 67.6185 337.449 68.0553 337.833C68.4921 338.217 69.0877 338.409 69.8421 338.409ZM85.9579 333.267C86.6462 333.611 87.169 334.061 87.5264 334.617C87.897 335.173 88.0823 335.815 88.0823 336.543C88.0823 337.403 87.8375 338.157 87.3477 338.806C86.858 339.441 86.1697 339.938 85.2829 340.295C84.3961 340.639 83.3703 340.811 82.2056 340.811C81.0408 340.811 80.015 340.639 79.1282 340.295C78.2546 339.938 77.573 339.441 77.0832 338.806C76.6067 338.157 76.3685 337.403 76.3685 336.543C76.3685 335.815 76.5472 335.173 76.9046 334.617C77.2752 334.061 77.798 333.611 78.473 333.267C77.9568 332.949 77.5597 332.552 77.2818 332.076C77.0038 331.586 76.8648 331.03 76.8648 330.408C76.8648 329.6 77.0899 328.899 77.5399 328.303C77.9899 327.708 78.6186 327.251 79.426 326.933C80.2334 326.602 81.1599 326.437 82.2056 326.437C83.2644 326.437 84.1976 326.602 85.005 326.933C85.8256 327.251 86.4609 327.708 86.9109 328.303C87.361 328.899 87.586 329.6 87.586 330.408C87.586 331.03 87.447 331.586 87.169 332.076C86.8911 332.552 86.4874 332.949 85.9579 333.267ZM82.2056 328.8C81.557 328.8 81.0342 328.958 80.6371 329.276C80.2533 329.581 80.0613 330.004 80.0613 330.547C80.0613 331.076 80.2533 331.493 80.6371 331.798C81.0209 332.102 81.5438 332.254 82.2056 332.254C82.8674 332.254 83.3968 332.102 83.7939 331.798C84.1909 331.493 84.3895 331.076 84.3895 330.547C84.3895 330.004 84.1909 329.581 83.7939 329.276C83.3968 328.958 82.8674 328.8 82.2056 328.8ZM82.2056 338.449C83.0129 338.449 83.6483 338.27 84.1115 337.913C84.588 337.542 84.8263 337.052 84.8263 336.443C84.8263 335.835 84.588 335.351 84.1115 334.994C83.6483 334.637 83.0129 334.458 82.2056 334.458C81.4114 334.458 80.7827 334.637 80.3194 334.994C79.8562 335.351 79.6245 335.835 79.6245 336.443C79.6245 337.065 79.8562 337.555 80.3194 337.913C80.7827 338.27 81.4114 338.449 82.2056 338.449ZM94.3196 331.897C96.2785 331.897 97.7212 332.287 98.6477 333.068C99.5875 333.849 100.057 334.895 100.057 336.205C100.057 337.052 99.8456 337.827 99.422 338.528C98.9985 339.216 98.3499 339.772 97.4763 340.196C96.616 340.606 95.5505 340.811 94.2798 340.811C93.3004 340.811 92.3342 340.686 91.3812 340.434C90.4414 340.169 89.6406 339.799 88.9788 339.322L90.2495 336.86C90.7789 337.257 91.3878 337.568 92.0761 337.793C92.7643 338.005 93.4725 338.111 94.2004 338.111C95.0078 338.111 95.6432 337.952 96.1064 337.635C96.5697 337.317 96.8013 336.874 96.8013 336.304C96.8013 335.709 96.5564 335.259 96.0667 334.954C95.5902 334.65 94.7563 334.498 93.5651 334.498H90.0113L90.726 326.675H99.2036V329.256H93.4063L93.1879 331.897H94.3196ZM103.189 340.732C102.646 340.732 102.19 340.547 101.819 340.176C101.448 339.805 101.263 339.342 101.263 338.786C101.263 338.217 101.448 337.76 101.819 337.416C102.19 337.059 102.646 336.88 103.189 336.88C103.732 336.88 104.188 337.059 104.559 337.416C104.929 337.76 105.115 338.217 105.115 338.786C105.115 339.342 104.929 339.805 104.559 340.176C104.188 340.547 103.732 340.732 103.189 340.732ZM119.285 337.654H117.021V340.573H113.885V337.654H106.4V335.49L112.951 326.675H116.327L110.251 335.034H113.984V332.433H117.021V335.034H119.285V337.654ZM125.103 326.675V340.573H121.887V329.256H119.107V326.675H125.103Z" fill="#333333"/>
<path d="M43.8288 356.714V357.22L40.9202 363.663H40.1459L43.0049 357.35H39.4312V358.65H38.7264V356.714H43.8288ZM45.1239 362.631C45.2762 362.631 45.4019 362.684 45.5012 362.79C45.6004 362.889 45.6501 363.015 45.6501 363.167C45.6501 363.246 45.6368 363.332 45.6104 363.425C45.5905 363.517 45.5574 363.623 45.5111 363.743L45.0942 365.112H44.6177L44.9552 363.673C44.8493 363.64 44.7633 363.58 44.6971 363.494C44.6309 363.402 44.5978 363.292 44.5978 363.167C44.5978 363.015 44.6475 362.889 44.7467 362.79C44.846 362.684 44.9717 362.631 45.1239 362.631ZM49.6755 363.723C49.1395 363.723 48.6597 363.58 48.2361 363.296C47.8192 363.011 47.4916 362.604 47.2533 362.075C47.0217 361.539 46.9059 360.91 46.9059 360.189C46.9059 359.467 47.0217 358.842 47.2533 358.312C47.4916 357.776 47.8192 357.366 48.2361 357.082C48.6597 356.797 49.1395 356.655 49.6755 356.655C50.2116 356.655 50.6881 356.797 51.105 357.082C51.5285 357.366 51.8594 357.776 52.0977 358.312C52.3359 358.842 52.4551 359.467 52.4551 360.189C52.4551 360.91 52.3359 361.539 52.0977 362.075C51.8594 362.604 51.5285 363.011 51.105 363.296C50.6881 363.58 50.2116 363.723 49.6755 363.723ZM49.6755 363.067C50.0792 363.067 50.4333 362.955 50.7377 362.73C51.0487 362.505 51.2903 362.177 51.4624 361.747C51.6344 361.317 51.7205 360.798 51.7205 360.189C51.7205 359.58 51.6344 359.06 51.4624 358.63C51.2903 358.2 51.0487 357.872 50.7377 357.647C50.4333 357.422 50.0792 357.31 49.6755 357.31C49.2718 357.31 48.9144 357.422 48.6034 357.647C48.299 357.872 48.0607 358.2 47.8887 358.63C47.7166 359.06 47.6306 359.58 47.6306 360.189C47.6306 360.798 47.7166 361.317 47.8887 361.747C48.0607 362.177 48.299 362.505 48.6034 362.73C48.9144 362.955 49.2718 363.067 49.6755 363.067ZM56.5792 363.723C56.0431 363.723 55.5633 363.58 55.1397 363.296C54.7228 363.011 54.3952 362.604 54.157 362.075C53.9253 361.539 53.8095 360.91 53.8095 360.189C53.8095 359.467 53.9253 358.842 54.157 358.312C54.3952 357.776 54.7228 357.366 55.1397 357.082C55.5633 356.797 56.0431 356.655 56.5792 356.655C57.1152 356.655 57.5917 356.797 58.0086 357.082C58.4322 357.366 58.7631 357.776 59.0013 358.312C59.2396 358.842 59.3587 359.467 59.3587 360.189C59.3587 360.91 59.2396 361.539 59.0013 362.075C58.7631 362.604 58.4322 363.011 58.0086 363.296C57.5917 363.58 57.1152 363.723 56.5792 363.723ZM56.5792 363.067C56.9828 363.067 57.3369 362.955 57.6413 362.73C57.9524 362.505 58.1939 362.177 58.366 361.747C58.5381 361.317 58.6241 360.798 58.6241 360.189C58.6241 359.58 58.5381 359.06 58.366 358.63C58.1939 358.2 57.9524 357.872 57.6413 357.647C57.3369 357.422 56.9828 357.31 56.5792 357.31C56.1755 357.31 55.8181 357.422 55.507 357.647C55.2026 357.872 54.9644 358.2 54.7923 358.63C54.6202 359.06 54.5342 359.58 54.5342 360.189C54.5342 360.798 54.6202 361.317 54.7923 361.747C54.9644 362.177 55.2026 362.505 55.507 362.73C55.8181 362.955 56.1755 363.067 56.5792 363.067ZM62.1824 360.437C61.7125 360.437 61.3319 360.265 61.0408 359.921C60.7562 359.57 60.6139 359.113 60.6139 358.551C60.6139 357.988 60.7562 357.535 61.0408 357.191C61.3319 356.84 61.7125 356.665 62.1824 356.665C62.6456 356.665 63.0228 356.837 63.314 357.181C63.6052 357.525 63.7508 357.982 63.7508 358.551C63.7508 359.12 63.6052 359.576 63.314 359.921C63.0228 360.265 62.6456 360.437 62.1824 360.437ZM66.3914 356.714H66.9771L62.232 363.663H61.6463L66.3914 356.714ZM62.1824 359.99C62.5066 359.99 62.7647 359.864 62.9567 359.613C63.1552 359.355 63.2545 359.001 63.2545 358.551C63.2545 358.101 63.1552 357.75 62.9567 357.498C62.7647 357.24 62.5066 357.111 62.1824 357.111C61.8515 357.111 61.59 357.24 61.3981 357.498C61.2062 357.757 61.1102 358.107 61.1102 358.551C61.1102 358.994 61.2062 359.345 61.3981 359.603C61.59 359.861 61.8515 359.99 62.1824 359.99ZM66.441 363.713C65.9778 363.713 65.6005 363.541 65.3093 363.197C65.0182 362.846 64.8726 362.389 64.8726 361.827C64.8726 361.264 65.0182 360.811 65.3093 360.467C65.6005 360.116 65.9778 359.94 66.441 359.94C66.9109 359.94 67.2881 360.116 67.5727 360.467C67.8639 360.811 68.0095 361.264 68.0095 361.827C68.0095 362.389 67.8639 362.846 67.5727 363.197C67.2881 363.541 66.9109 363.713 66.441 363.713ZM66.441 363.266C66.7719 363.266 67.0333 363.137 67.2253 362.879C67.4172 362.621 67.5131 362.27 67.5131 361.827C67.5131 361.383 67.4172 361.032 67.2253 360.774C67.0333 360.516 66.7719 360.387 66.441 360.387C66.1167 360.387 65.8553 360.516 65.6568 360.774C65.4649 361.026 65.3689 361.377 65.3689 361.827C65.3689 362.277 65.4649 362.631 65.6568 362.889C65.8553 363.14 66.1167 363.266 66.441 363.266Z" fill="#4AAF05"/>
<path d="M29.309 362.487V358.075" stroke="#4AAF05" stroke-width="1.65449" stroke-linecap="round" stroke-linejoin="round"/>
<path d="M27.6545 359.73L29.309 358.075L30.9635 359.73" stroke="#4AAF05" stroke-width="1.65449" stroke-linecap="round" stroke-linejoin="round"/>
<defs>
<linearGradient id="paint0_linear" x1="401.402" y1="146.683" x2="401.402" y2="261.011" gradientUnits="userSpaceOnUse">
<stop stop-color="white" stop-opacity="0"/>
<stop offset="1" stop-color="white"/>
</linearGradient>
</defs>
</svg>
