<svg width="714" height="786" viewBox="0 0 714 786" fill="none" xmlns="http://www.w3.org/2000/svg">
<path opacity="0.3" d="M117.915 387.101C56.0783 350.178 56.4931 395.827 53.0467 397.123C53.0467 397.123 53.3696 408.1 61.9352 446.802L637.487 654.551L599.579 442.676C521.246 347.08 468.712 279.915 436.241 321.093C379.95 392.336 354.502 437.972 260.223 369.958C204.345 329.649 192.166 431.423 117.915 387.101Z" fill="url(#paint0_linear)"/>
<path opacity="0.3" d="M193.531 412.166C131.694 375.242 132.099 420.837 128.608 422.197C128.608 422.197 128.931 433.174 137.496 471.876L713.048 679.625L675.14 467.751C568.76 360.252 517.186 393.021 472.102 419.365C427.936 445.149 404.133 412.059 335.079 371.165C278.3 337.524 267.782 456.488 193.531 412.166Z" fill="url(#paint1_linear)"/>
<path d="M473.959 297.057C473.904 292.601 471.224 287.564 468.026 285.765C464.773 283.967 462.236 286.059 462.291 290.515C462.346 294.971 465.026 300.008 468.223 301.807C471.422 303.661 474.013 301.513 473.959 297.057Z" fill="#F2994A"/>
<path d="M319.558 356.545C319.506 352.256 316.77 347.276 313.405 345.424C310.04 343.571 307.39 345.498 307.442 349.786C307.495 354.075 310.23 359.055 313.596 360.908C316.905 362.761 319.611 360.834 319.558 356.545Z" fill="#F2C94C"/>
<path opacity="0.07" d="M433.358 12.4978L536.909 70.5534L539.394 272.632L435.843 214.576L433.358 12.4978Z" fill="white"/>
<path opacity="0.5" d="M517.07 88.1784L413.519 30.1228L415.949 232.202L460.712 257.277L467.9 271.004L474.793 265.237L519.555 290.257L517.07 88.1784Z" fill="url(#paint2_linear)"/>
<path opacity="0.1" d="M504.366 151.34C504.445 157.801 503.571 163.717 501.85 168.696C500.128 173.676 497.558 177.607 494.305 180.321C491.051 183.035 487.113 184.42 482.824 184.473C478.536 184.526 473.84 183.191 469.183 180.518L468.577 131.224L504.366 151.34Z" fill="white"/>
<path opacity="0.3" d="M469.184 180.574C462.901 177.03 456.703 171.313 451.208 163.916C445.713 156.518 441.094 147.773 437.86 138.51C434.626 129.246 432.839 119.798 432.733 111.165C432.627 102.531 434.204 94.9355 437.254 89.2158L468.578 131.28L469.184 180.574Z" fill="white"/>
<path d="M504.366 151.34C504.232 140.479 501.522 128.479 496.592 117.175C491.662 105.872 484.855 95.9279 477.247 88.8351C469.584 81.743 461.515 77.9427 454.274 78.0317C447.033 78.1208 441.065 82.038 437.198 89.2162L468.522 131.281L504.366 151.34Z" fill="#F2994A"/>
<path opacity="0.15" d="M428.827 183.187L491.934 218.566L492.027 226.141L428.92 190.762L428.827 183.187Z" fill="white"/>
<path opacity="0.15" d="M429.009 198.003L505.523 240.905L505.616 248.48L429.103 205.579L429.009 198.003Z" fill="white"/>
<path opacity="0.15" d="M429.192 212.819L478.779 240.621L478.873 248.196L429.285 220.394L429.192 212.819Z" fill="white"/>
<path opacity="0.07" d="M278.403 72.2163L381.954 130.272L384.439 332.35L280.888 274.294L278.403 72.2163Z" fill="white"/>
<path opacity="0.5" d="M362.396 148.005L258.845 89.949L261.275 292.084L306.094 317.158L313.226 330.83L320.118 325.063L364.881 350.083L362.396 148.005Z" fill="url(#paint3_linear)"/>
<path opacity="0.1" d="M349.692 211.222C349.798 219.856 348.22 227.452 345.171 233.171C342.121 238.891 337.654 242.567 332.267 243.859L313.847 191.107L349.692 211.222Z" fill="white"/>
<path opacity="0.3" d="M332.323 243.858C325.546 245.445 317.663 243.147 309.793 237.394C301.978 231.585 294.625 222.595 288.978 211.802L313.904 191.162L332.323 243.858Z" fill="white"/>
<path d="M349.692 211.222C349.592 203.09 348.035 194.308 345.199 185.596C342.306 176.886 338.248 168.524 333.312 161.287C328.377 154.05 322.677 148.103 316.833 143.997C310.933 139.891 305.058 137.791 299.655 137.858C294.252 137.924 289.488 140.099 285.863 144.266C282.181 148.434 279.748 154.425 278.668 161.736C277.644 169.046 278.025 177.398 279.804 186.122C281.582 194.846 284.754 203.609 289.032 211.69L313.958 191.05L349.692 211.222Z" fill="#F2C94C"/>
<path opacity="0.15" d="M274.154 243.069L345.787 283.245L345.88 290.82L274.247 250.644L274.154 243.069Z" fill="white"/>
<path opacity="0.15" d="M274.335 257.83L348.718 299.587L348.811 307.163L274.429 265.405L274.335 257.83Z" fill="white"/>
<path opacity="0.15" d="M274.518 272.646L324.105 300.447L324.199 308.022L274.611 280.221L274.518 272.646Z" fill="white"/>
<defs>
<linearGradient id="paint0_linear" x1="386.237" y1="207.179" x2="357.57" y2="430.147" gradientUnits="userSpaceOnUse">
<stop stop-color="white"/>
<stop offset="1" stop-color="white" stop-opacity="0"/>
</linearGradient>
<linearGradient id="paint1_linear" x1="431.252" y1="292.899" x2="424.079" y2="470.444" gradientUnits="userSpaceOnUse">
<stop stop-color="white"/>
<stop offset="1" stop-color="white" stop-opacity="0"/>
</linearGradient>
<linearGradient id="paint2_linear" x1="465.318" y1="63.302" x2="468.389" y2="313.034" gradientUnits="userSpaceOnUse">
<stop stop-color="white" stop-opacity="0"/>
<stop offset="1" stop-color="white"/>
</linearGradient>
<linearGradient id="paint3_linear" x1="310.625" y1="121.61" x2="313.785" y2="378.539" gradientUnits="userSpaceOnUse">
<stop stop-color="white" stop-opacity="0"/>
<stop offset="1" stop-color="white"/>
</linearGradient>
</defs>
</svg>
