<svg width="49" height="49" viewBox="0 0 49 49" fill="none" xmlns="http://www.w3.org/2000/svg">
<circle cx="24.5535" cy="24.9497" r="24" fill="white"/>
<rect opacity="0.3" x="17" y="17.0469" width="16" height="16" rx="2" fill="#2B64F8"/>
<rect opacity="0.3" x="22" y="22.0469" width="6" height="6" fill="#2B64F8"/>
<path d="M33 20.0469H34C34.5523 20.0469 35 20.4946 35 21.0469C35 21.5992 34.5523 22.0469 34 22.0469H33V20.0469Z" fill="#2B64F8"/>
<path d="M33 24.0469H34C34.5523 24.0469 35 24.4946 35 25.0469C35 25.5992 34.5523 26.0469 34 26.0469H33V24.0469Z" fill="#2B64F8"/>
<path d="M33 28.0469H34C34.5523 28.0469 35 28.4946 35 29.0469C35 29.5992 34.5523 30.0469 34 30.0469H33V28.0469Z" fill="#2B64F8"/>
<path d="M15 21.0469C15 20.4946 15.4477 20.0469 16 20.0469H17V22.0469H16C15.4477 22.0469 15 21.5992 15 21.0469Z" fill="#2B64F8"/>
<path d="M15 25.0469C15 24.4946 15.4477 24.0469 16 24.0469H17V26.0469H16C15.4477 26.0469 15 25.5992 15 25.0469Z" fill="#2B64F8"/>
<path d="M15 29.0469C15 28.4946 15.4477 28.0469 16 28.0469H17V30.0469H16C15.4477 30.0469 15 29.5992 15 29.0469Z" fill="#2B64F8"/>
</svg>
