<svg width="401" height="496" viewBox="0 0 401 496" fill="none" xmlns="http://www.w3.org/2000/svg">
<path opacity="0.1" d="M366.043 0L0.7966 210.821L0.849701 495.457L366.096 284.635L366.043 0Z" fill="url(#paint0_linear)"/>
<path opacity="0.2" d="M366.043 0L1.27475 210.556V249.162L366.043 38.6063V0Z" fill="url(#paint1_linear)"/>
<path d="M400.508 128.936L306.089 183.42V209.6L400.508 155.116V128.936Z" fill="#F2994A"/>
<path d="M140.194 274.917L45.7754 329.402V355.582L140.194 301.098V274.917Z" fill="#F2C94C"/>
<path opacity="0.15" d="M202.112 310.178L17.8429 416.545V495.616L202.112 389.249V310.178Z" fill="url(#paint2_linear)"/>
<path opacity="0.07" d="M184.27 301.257L9.15527e-05 407.623V486.695L184.27 380.328V301.257Z" fill="url(#paint3_linear)"/>
<path opacity="0.15" d="M188.465 334.128L160.692 350.165V376.345L188.465 360.308V334.128Z" fill="white"/>
<path opacity="0.15" d="M154.266 354.785L126.493 370.822V397.003L154.266 380.965V354.785Z" fill="white"/>
<path opacity="0.15" d="M120.067 374.168L92.2942 390.205V416.385L120.067 400.295V374.168Z" fill="white"/>
<path opacity="0.15" d="M85.8687 394.826L58.0955 410.863V437.043L85.8687 421.006V394.826Z" fill="white"/>
<path opacity="0.15" d="M341.403 107.004L131.856 227.974V236.895L341.403 115.978V107.004Z" fill="white"/>
<path opacity="0.15" d="M341.403 125.006L160.585 229.354V238.276L341.403 133.927V125.006Z" fill="white"/>
<path opacity="0.15" d="M341.403 142.795L187.562 231.585V240.506L341.403 151.717V142.795Z" fill="white"/>
<path opacity="0.15" d="M391.852 192.341L238.435 280.865V359.936L391.852 271.413V192.341Z" fill="url(#paint4_linear)"/>
<path opacity="0.07" d="M374.009 183.42L220.593 271.944V351.015L374.009 262.491V183.42Z" fill="url(#paint5_linear)"/>
<path opacity="0.15" d="M381.39 217.406L259.517 287.769V296.69L381.39 226.381V217.406Z" fill="white"/>
<path opacity="0.15" d="M381.39 235.408L283.786 291.751V300.673L381.39 244.33V235.408Z" fill="white"/>
<path opacity="0.2" d="M326.322 42.2174C326.322 48.0057 329.72 50.714 333.862 48.3243C338.004 45.9347 341.403 39.2967 341.403 33.5615C341.403 27.8263 338.004 25.0649 333.862 27.4546C329.72 29.8443 326.322 36.4822 326.322 42.2174Z" fill="white"/>
<path opacity="0.3" d="M336.252 346.236C336.252 356.75 338.589 363.494 343.262 366.415C347.935 369.336 354.201 368.539 362.06 363.972C369.92 359.459 376.186 353.033 380.859 344.696C385.532 336.412 387.869 326.959 387.869 316.445C387.869 305.93 385.532 299.186 380.859 296.265C376.186 293.345 369.92 294.141 362.06 298.708C354.201 303.275 347.935 309.647 343.262 317.985C338.589 326.269 336.252 335.668 336.252 346.236ZM352.714 336.73C352.714 330.995 353.564 326.375 355.316 322.764C357.069 319.153 359.299 316.604 362.007 315.011C364.822 313.365 367.105 313.365 368.858 314.905C370.504 316.551 371.354 320.215 371.354 325.897C371.354 331.632 370.504 336.305 368.858 339.916C367.105 343.528 364.822 346.13 362.007 347.723C359.299 349.316 357.069 349.316 355.316 347.723C353.617 346.13 352.714 342.412 352.714 336.73ZM307.842 332.694L287.609 344.377L344.589 428.015L364.822 416.333L307.842 332.694ZM264.297 444.424C264.297 454.939 266.633 461.683 271.306 464.604C275.979 467.524 282.246 466.728 290.105 462.161C297.964 457.647 304.231 451.222 308.904 442.884C313.577 434.6 315.913 425.148 315.913 414.633C315.913 404.119 313.577 397.375 308.904 394.454C304.231 391.533 297.964 392.33 290.105 396.897C282.246 401.41 275.979 407.836 271.306 416.173C266.633 424.457 264.297 433.91 264.297 444.424ZM280.759 434.919C280.759 429.184 281.608 424.564 283.361 420.953C285.113 417.342 287.344 414.793 290.052 413.199C292.866 411.553 295.15 411.553 296.902 413.093C298.548 414.739 299.398 418.404 299.398 424.086C299.398 429.821 298.548 434.494 296.902 438.105C295.15 441.716 292.866 444.318 290.052 445.911C287.344 447.504 285.113 447.504 283.361 445.911C281.662 444.371 280.759 440.654 280.759 434.919Z" fill="url(#paint6_linear)"/>
<defs>
<linearGradient id="paint0_linear" x1="112.267" y1="176.729" x2="248.482" y2="312.674" gradientUnits="userSpaceOnUse">
<stop stop-color="white"/>
<stop offset="1" stop-color="white" stop-opacity="0"/>
</linearGradient>
<linearGradient id="paint1_linear" x1="275.54" y1="-31.0526" x2="137.034" y2="203.564" gradientUnits="userSpaceOnUse">
<stop stop-color="white"/>
<stop offset="1" stop-color="white" stop-opacity="0"/>
</linearGradient>
<linearGradient id="paint2_linear" x1="92.8665" y1="373.258" x2="124.403" y2="427.894" gradientUnits="userSpaceOnUse">
<stop stop-color="white"/>
<stop offset="1" stop-color="white" stop-opacity="0"/>
</linearGradient>
<linearGradient id="paint3_linear" x1="75.0081" y1="364.329" x2="106.544" y2="418.964" gradientUnits="userSpaceOnUse">
<stop stop-color="white"/>
<stop offset="1" stop-color="white" stop-opacity="0"/>
</linearGradient>
<linearGradient id="paint4_linear" x1="298.039" y1="246.488" x2="329.575" y2="301.123" gradientUnits="userSpaceOnUse">
<stop stop-color="white"/>
<stop offset="1" stop-color="white" stop-opacity="0"/>
</linearGradient>
<linearGradient id="paint5_linear" x1="280.182" y1="237.559" x2="311.718" y2="292.194" gradientUnits="userSpaceOnUse">
<stop stop-color="white"/>
<stop offset="1" stop-color="white" stop-opacity="0"/>
</linearGradient>
<linearGradient id="paint6_linear" x1="297.247" y1="340.026" x2="372.911" y2="446.101" gradientUnits="userSpaceOnUse">
<stop stop-color="white"/>
<stop offset="1" stop-color="white" stop-opacity="0"/>
</linearGradient>
</defs>
</svg>
