<svg width="149" height="156" viewBox="0 0 149 156" fill="none" xmlns="http://www.w3.org/2000/svg">
<path opacity="0.2" fill-rule="evenodd" clip-rule="evenodd" d="M144.398 155.688C142.062 155.688 140.169 153.804 140.169 151.481C140.169 149.157 142.062 147.273 144.398 147.273C146.734 147.273 148.627 149.157 148.627 151.481C148.627 153.804 146.734 155.688 144.398 155.688ZM144.398 126.234C142.062 126.234 140.169 124.35 140.169 122.026C140.169 119.702 142.062 117.818 144.398 117.818C146.734 117.818 148.627 119.702 148.627 122.026C148.627 124.35 146.734 126.234 144.398 126.234ZM144.398 96.7792C142.062 96.7792 140.169 94.8953 140.169 92.5714C140.169 90.2475 142.062 88.3636 144.398 88.3636C146.734 88.3636 148.627 90.2475 148.627 92.5714C148.627 94.8953 146.734 96.7792 144.398 96.7792ZM144.398 67.3247C142.062 67.3247 140.169 65.4408 140.169 63.1169C140.169 60.793 142.062 58.9091 144.398 58.9091C146.734 58.9091 148.627 60.793 148.627 63.1169C148.627 65.4408 146.734 67.3247 144.398 67.3247ZM144.398 37.8701C142.062 37.8701 140.169 35.9862 140.169 33.6623C140.169 31.3384 142.062 29.4546 144.398 29.4546C146.734 29.4546 148.627 31.3384 148.627 33.6623C148.627 35.9862 146.734 37.8701 144.398 37.8701ZM144.398 8.41559C142.062 8.41559 140.169 6.5317 140.169 4.2078C140.169 1.8839 142.062 5.94834e-06 144.398 5.94834e-06C146.734 5.94834e-06 148.627 1.8839 148.627 4.2078C148.627 6.5317 146.734 8.41559 144.398 8.41559ZM116.606 155.688C114.27 155.688 112.377 153.804 112.377 151.481C112.377 149.157 114.27 147.273 116.606 147.273C118.942 147.273 120.835 149.157 120.835 151.481C120.835 153.804 118.942 155.688 116.606 155.688ZM116.606 126.234C114.27 126.234 112.377 124.35 112.377 122.026C112.377 119.702 114.27 117.818 116.606 117.818C118.942 117.818 120.835 119.702 120.835 122.026C120.835 124.35 118.942 126.234 116.606 126.234ZM116.606 96.7792C114.27 96.7792 112.377 94.8953 112.377 92.5714C112.377 90.2475 114.27 88.3636 116.606 88.3636C118.942 88.3636 120.835 90.2475 120.835 92.5714C120.835 94.8953 118.942 96.7792 116.606 96.7792ZM116.606 67.3247C114.27 67.3247 112.377 65.4408 112.377 63.1169C112.377 60.793 114.27 58.9091 116.606 58.9091C118.942 58.9091 120.835 60.793 120.835 63.1169C120.835 65.4408 118.942 67.3247 116.606 67.3247ZM116.606 37.8701C114.27 37.8701 112.377 35.9862 112.377 33.6623C112.377 31.3384 114.27 29.4546 116.606 29.4546C118.942 29.4546 120.835 31.3384 120.835 33.6623C120.835 35.9862 118.942 37.8701 116.606 37.8701ZM116.606 8.41559C114.27 8.41559 112.377 6.5317 112.377 4.2078C112.377 1.8839 114.27 5.94834e-06 116.606 5.94834e-06C118.942 5.94834e-06 120.835 1.8839 120.835 4.2078C120.835 6.5317 118.942 8.41559 116.606 8.41559ZM88.8138 155.688C86.478 155.688 84.5845 153.804 84.5845 151.481C84.5845 149.157 86.478 147.273 88.8138 147.273C91.1495 147.273 93.043 149.157 93.043 151.481C93.043 153.804 91.1495 155.688 88.8138 155.688ZM88.8138 126.234C86.478 126.234 84.5845 124.35 84.5845 122.026C84.5845 119.702 86.478 117.818 88.8138 117.818C91.1495 117.818 93.043 119.702 93.043 122.026C93.043 124.35 91.1495 126.234 88.8138 126.234ZM88.8138 96.7792C86.478 96.7792 84.5845 94.8953 84.5845 92.5714C84.5845 90.2475 86.478 88.3636 88.8138 88.3636C91.1495 88.3636 93.043 90.2475 93.043 92.5714C93.043 94.8953 91.1495 96.7792 88.8138 96.7792ZM88.8138 67.3247C86.478 67.3247 84.5845 65.4408 84.5845 63.1169C84.5845 60.793 86.478 58.9091 88.8138 58.9091C91.1495 58.9091 93.043 60.793 93.043 63.1169C93.043 65.4408 91.1495 67.3247 88.8138 67.3247ZM88.8138 37.8701C86.478 37.8701 84.5845 35.9862 84.5845 33.6623C84.5845 31.3384 86.478 29.4546 88.8138 29.4546C91.1495 29.4546 93.043 31.3384 93.043 33.6623C93.043 35.9862 91.1495 37.8701 88.8138 37.8701ZM88.8138 8.41559C86.478 8.41559 84.5845 6.5317 84.5845 4.2078C84.5845 1.8839 86.478 5.94834e-06 88.8138 5.94834e-06C91.1495 5.94834e-06 93.043 1.8839 93.043 4.2078C93.043 6.5317 91.1495 8.41559 88.8138 8.41559ZM59.8133 155.688C57.4776 155.688 55.5841 153.804 55.5841 151.481C55.5841 149.157 57.4776 147.273 59.8133 147.273C62.1491 147.273 64.0426 149.157 64.0426 151.481C64.0426 153.804 62.1491 155.688 59.8133 155.688ZM59.8133 126.234C57.4776 126.234 55.5841 124.35 55.5841 122.026C55.5841 119.702 57.4776 117.818 59.8133 117.818C62.1491 117.818 64.0426 119.702 64.0426 122.026C64.0426 124.35 62.1491 126.234 59.8133 126.234ZM59.8133 96.7792C57.4776 96.7792 55.5841 94.8953 55.5841 92.5714C55.5841 90.2475 57.4776 88.3636 59.8133 88.3636C62.1491 88.3636 64.0426 90.2475 64.0426 92.5714C64.0426 94.8953 62.1491 96.7792 59.8133 96.7792ZM59.8133 67.3247C57.4776 67.3247 55.5841 65.4408 55.5841 63.1169C55.5841 60.793 57.4776 58.9091 59.8133 58.9091C62.1491 58.9091 64.0426 60.793 64.0426 63.1169C64.0426 65.4408 62.1491 67.3247 59.8133 67.3247ZM59.8133 37.8701C57.4776 37.8701 55.5841 35.9862 55.5841 33.6623C55.5841 31.3384 57.4776 29.4546 59.8133 29.4546C62.1491 29.4546 64.0426 31.3384 64.0426 33.6623C64.0426 35.9862 62.1491 37.8701 59.8133 37.8701ZM59.8133 8.41559C57.4776 8.41559 55.5841 6.5317 55.5841 4.2078C55.5841 1.8839 57.4776 5.94834e-06 59.8133 5.94834e-06C62.1491 5.94834e-06 64.0426 1.8839 64.0426 4.2078C64.0426 6.5317 62.1491 8.41559 59.8133 8.41559ZM32.0213 155.688C29.6855 155.688 27.7921 153.804 27.7921 151.481C27.7921 149.157 29.6855 147.273 32.0213 147.273C34.357 147.273 36.2505 149.157 36.2505 151.481C36.2505 153.804 34.357 155.688 32.0213 155.688ZM32.0213 126.234C29.6855 126.234 27.7921 124.35 27.7921 122.026C27.7921 119.702 29.6855 117.818 32.0213 117.818C34.357 117.818 36.2505 119.702 36.2505 122.026C36.2505 124.35 34.357 126.234 32.0213 126.234ZM32.0213 96.7792C29.6855 96.7792 27.7921 94.8953 27.7921 92.5714C27.7921 90.2475 29.6855 88.3636 32.0213 88.3636C34.357 88.3636 36.2505 90.2475 36.2505 92.5714C36.2505 94.8953 34.357 96.7792 32.0213 96.7792ZM32.0213 67.3247C29.6855 67.3247 27.7921 65.4408 27.7921 63.1169C27.7921 60.793 29.6855 58.9091 32.0213 58.9091C34.357 58.9091 36.2505 60.793 36.2505 63.1169C36.2505 65.4408 34.357 67.3247 32.0213 67.3247ZM32.0213 37.8701C29.6855 37.8701 27.7921 35.9862 27.7921 33.6623C27.7921 31.3384 29.6855 29.4546 32.0213 29.4546C34.357 29.4546 36.2505 31.3384 36.2505 33.6623C36.2505 35.9862 34.357 37.8701 32.0213 37.8701ZM32.0213 8.41559C29.6855 8.41559 27.7921 6.5317 27.7921 4.2078C27.7921 1.8839 29.6855 5.94834e-06 32.0213 5.94834e-06C34.357 5.94834e-06 36.2505 1.8839 36.2505 4.2078C36.2505 6.5317 34.357 8.41559 32.0213 8.41559ZM4.22923 155.688C1.89349 155.688 0 153.804 0 151.481C0 149.157 1.89349 147.273 4.22923 147.273C6.56496 147.273 8.45845 149.157 8.45845 151.481C8.45845 153.804 6.56496 155.688 4.22923 155.688ZM4.22923 126.234C1.89349 126.234 0 124.35 0 122.026C0 119.702 1.89349 117.818 4.22923 117.818C6.56496 117.818 8.45845 119.702 8.45845 122.026C8.45845 124.35 6.56496 126.234 4.22923 126.234ZM4.22923 96.7792C1.89349 96.7792 0 94.8953 0 92.5714C0 90.2475 1.89349 88.3636 4.22923 88.3636C6.56496 88.3636 8.45845 90.2475 8.45845 92.5714C8.45845 94.8953 6.56496 96.7792 4.22923 96.7792ZM4.22923 67.3247C1.89349 67.3247 0 65.4408 0 63.1169C0 60.793 1.89349 58.9091 4.22923 58.9091C6.56496 58.9091 8.45845 60.793 8.45845 63.1169C8.45845 65.4408 6.56496 67.3247 4.22923 67.3247ZM4.22923 37.8701C1.89349 37.8701 0 35.9862 0 33.6623C0 31.3384 1.89349 29.4546 4.22923 29.4546C6.56496 29.4546 8.45845 31.3384 8.45845 33.6623C8.45845 35.9862 6.56496 37.8701 4.22923 37.8701ZM4.22923 8.41558C1.89349 8.41558 0 6.53169 0 4.20779C0 1.88389 1.89349 0 4.22923 0C6.56496 0 8.45845 1.88389 8.45845 4.20779C8.45845 6.53169 6.56496 8.41558 4.22923 8.41558Z" fill="#FF0000"/>
</svg>
