<svg width="320" height="255" viewBox="0 0 320 255" fill="none" xmlns="http://www.w3.org/2000/svg">
<g opacity="0.2">
<path fill-rule="evenodd" clip-rule="evenodd" d="M54.8311 98.4511H34.2587V8.2959H22.1574V98.4511H0.97998V237.012C19.132 237.012 36.679 237.012 54.8311 237.012V98.4511Z" fill="white"/>
<path fill-rule="evenodd" clip-rule="evenodd" d="M134.095 103.292H113.523V192.842H101.421V103.292H80.2439V47.0203C98.3959 47.0203 115.943 47.0203 134.095 47.0203V103.292Z" fill="white"/>
<path fill-rule="evenodd" clip-rule="evenodd" d="M232.721 16.7668H211.544V0.429932H200.047V16.7668H178.87V155.932H200.047V169.244H211.544V155.932H232.721V16.7668Z" fill="white"/>
<path fill-rule="evenodd" clip-rule="evenodd" d="M319.246 102.687H298.674V85.7446H286.572V102.687H265.395V241.247H286.572V254.559H298.674V241.247H319.246V102.687Z" fill="white"/>
</g>
</svg>
